
<svg xmlns="http://www.w3.org/2000/svg" width="121" height="84" viewBox="0 0 121 84" fill="none">
  <path fill-rule="evenodd" clip-rule="evenodd" d="M3.65433 76.9698H117.036C118.736 76.9698 120.114 78.3365 120.114 80.0224V83.6807H0.57663V80.0224C0.57663 78.3365 1.95456 76.9698 3.65433 76.9698Z" fill="#08142F"></path>
  <path d="M53.5782 37.4501H14.4843C13.4463 37.4501 12.6048 38.2847 12.6048 39.3143C12.6048 40.3438 13.4463 41.1784 14.4843 41.1784H53.5782C54.6162 41.1784 55.4577 40.3438 55.4577 39.3143C55.4577 38.2847 54.6162 37.4501 53.5782 37.4501Z" fill="#D8D8D8"></path>
  <path d="M118 37H61V77H118V37Z" fill="#08142F"></path>
  <path d="M115.637 35.15H58.4313C55.9589 35.15 53.9546 37.1379 53.9546 39.5901V42.6405C53.9546 45.0926 55.9589 47.0805 58.4313 47.0805H115.637C118.109 47.0805 120.113 45.0926 120.113 42.6405V39.5901C120.113 37.1379 118.109 35.15 115.637 35.15Z" fill="#3D527E"></path>
  <path fill-rule="evenodd" clip-rule="evenodd" d="M13.6385 24H55.3615C59.0278 24 62 26.5535 62 29.7035V77H7V29.7035C7 26.5535 9.97216 24 13.6385 24Z" fill="#152E63"></path>
  <path d="M53 48H16V77H53V48Z" fill="#08142F"></path>
  <path d="M53.2032 47H14.8612C14.0308 47 13.3576 47.6677 13.3576 48.4913C13.3576 49.3149 14.0308 49.9826 14.8612 49.9826H53.2032C54.0337 49.9826 54.7069 49.3149 54.7069 48.4913C54.7069 47.6677 54.0337 47 53.2032 47Z" fill="#08142F"></path>
  <path d="M50 51H18V77H50V51Z" fill="#7A0019"></path>
  <path d="M33 53H19V77H33V53Z" fill="#FFDE70"></path>
  <path d="M49 53H35V77H49V53Z" fill="#FFDE70"></path>
  <path d="M40.4562 18H26.1035C23.6312 18 21.6269 19.9879 21.6269 22.44V34.4383C21.6269 36.8905 23.6312 38.8783 26.1035 38.8783H40.4562C42.9286 38.8783 44.9328 36.8905 44.9328 34.4383V22.44C44.9328 19.9879 42.9286 18 40.4562 18Z" fill="#7A0019"></path>
  <path d="M120.113 41.1152H62.2243V44.0979H120.113V41.1152Z" fill="#7A0019"></path>
  <path d="M85.5482 53.7109H71.2297C69.9935 53.7109 68.9914 54.7049 68.9914 55.931V66.404C68.9914 67.6301 69.9935 68.624 71.2297 68.624H85.5482C86.7844 68.624 87.7865 67.6301 87.7865 66.404V55.931C87.7865 54.7049 86.7844 53.7109 85.5482 53.7109Z" fill="#3D527E"></path>
  <path d="M108.854 53.7109H94.5354C93.2992 53.7109 92.297 54.7049 92.297 55.931V66.404C92.297 67.6301 93.2992 68.624 94.5354 68.624H108.854C110.09 68.624 111.092 67.6301 111.092 66.404V55.931C111.092 54.7049 110.09 53.7109 108.854 53.7109Z" fill="#3D527E"></path>
  <path d="M33.2887 23.2195H33.2716C32.6535 23.2195 32.1524 23.7165 32.1524 24.3295V32.5486C32.1524 33.1617 32.6535 33.6586 33.2716 33.6586H33.2887C33.9068 33.6586 34.4078 33.1617 34.4078 32.5486V24.3295C34.4078 23.7165 33.9068 23.2195 33.2887 23.2195Z" fill="white"></path>
  <path fill-rule="evenodd" clip-rule="evenodd" d="M28.0176 28.4475V28.4306C28.0176 27.8176 28.5186 27.3206 29.1367 27.3206H37.4237C38.0418 27.3206 38.5428 27.8176 38.5428 28.4306V28.4475C38.5428 29.0606 38.0418 29.5576 37.4237 29.5576H29.1367C28.5186 29.5576 28.0176 29.0606 28.0176 28.4475Z" fill="white"></path>
  <path fill-rule="evenodd" clip-rule="evenodd" d="M88.0043 0C95.1832 0 101.003 5.77207 101.003 12.8923C101.003 15.6937 100.102 18.2864 98.5719 20.401L98.5834 20.4128L98.5084 20.4881C97.748 21.5207 96.8366 22.4369 95.8065 23.2048L88.0043 31.0484L80.2557 23.2445C79.18 22.4512 78.2322 21.4969 77.4486 20.4175L77.4442 20.4128C75.9097 18.2954 75.0057 15.6986 75.0057 12.8923C75.0057 5.77207 80.8254 0 88.0043 0Z" fill="#152E63"></path>
  <path d="M88.0046 20.8694C92.4466 20.8694 96.0475 17.2979 96.0475 12.8923C96.0475 8.48663 92.4466 4.91516 88.0046 4.91516C83.5627 4.91516 79.9618 8.48663 79.9618 12.8923C79.9618 17.2979 83.5627 20.8694 88.0046 20.8694Z" fill="#FFDE70"></path>
</svg>
