
<svg xmlns="http://www.w3.org/2000/svg" width="128" height="111" fill="none">
  <circle cx="47.756" cy="60.238" r="44.756" fill="#152E64"></circle>
  <path d="M48.838 60.27V36.448M48.838 60.27 36.566 71.82" stroke="#FFB71E" stroke-width="6" stroke-linecap="round"></path>
  <path d="m92.617 57.495-.015-.017-.015-.017c-4.564-5.213-11.896-7.053-18.393-4.64-5.915 1.93-10.386 6.811-11.751 12.866a21.307 21.307 0 0 0 3.313 17.858 44.072 44.072 0 0 0 7.51 8.461c4.185 3.715 8.42 7.37 12.631 11.003l2.836 2.447c.114.099.226.207.408.381l.09.086c.206.197.497.475.826.738.646.518 1.77 1.259 3.313 1.259 1.541 0 2.664-.739 3.31-1.254.329-.263.62-.539.826-.735l.085-.08c.184-.177.298-.286.413-.384l12.004-10.305a68.014 68.014 0 0 0 9.743-9.92 22.755 22.755 0 0 0 5.162-12.88 19.17 19.17 0 0 0-7.475-17.062 16.994 16.994 0 0 0-15.182-2.917 17.615 17.615 0 0 0-8.987 5.896 51.818 51.818 0 0 0-.652-.784Z" fill="#900021" stroke="#fff" stroke-width="6"></path>
  <path d="M11.631 60.422H5.877M49.033 23.98v-5.755M49.033 102.62v-5.754" stroke="#7F95C1" stroke-width="2" stroke-linecap="round"></path>
  <rect x="3.959" y="16.636" width="31.436" height="11.293" rx="5.646" transform="rotate(-30.884 3.959 16.636)" fill="#FFB71E"></rect>
  <rect width="31.436" height="11.293" rx="5.646" transform="scale(-1 1) rotate(-30.884 -15.587 173.756)" fill="#FFB71E"></rect>
</svg>
