<svg width="220" height="32" viewBox="0 0 220 32" fill="none" xmlns="http://www.w3.org/2000/svg">
<g clip-path="url(#clip0_9958_1503)">
<path d="M107.184 10.0789H104.721V12.7707C103.391 10.8614 101.416 9.8076 98.735 9.8076C93.3415 9.8076 89.1951 13.7515 89.1951 20.5229C89.1951 27.2943 93.3415 31.2382 98.735 31.2382C104.128 31.2382 103.391 30.0697 104.721 28.056V30.7896H109.979V12.8751C109.979 11.3309 108.732 10.0684 107.184 10.0684V10.0789ZM99.8366 26.251C97.1554 26.251 95.077 23.893 95.077 20.5125C95.077 17.132 97.145 14.774 99.8366 14.774C102.528 14.774 104.596 16.9129 104.596 20.5125C104.596 24.1121 102.518 26.251 99.8366 26.251ZM128.113 13.1777V10.1102H125.65C124.112 10.1102 122.855 11.3622 122.855 12.9168V30.8104H128.113V19.5213C128.113 17.0798 130.088 15.0974 132.52 15.0974C133.58 15.0974 134.546 15.4731 135.305 16.0991V10.2041C134.64 9.91194 133.902 9.745 133.133 9.745C130.846 9.745 128.893 11.1744 128.113 13.1881V13.1777ZM116.381 9.8702C114.957 9.8702 113.803 11.0283 113.803 12.4577V30.8104H118.958V12.4577C118.958 11.0283 117.804 9.8702 116.381 9.8702ZM162.761 9.8702C161.337 9.8702 160.183 11.0283 160.183 12.4577V30.8104H165.338V12.4577C165.338 11.0283 164.184 9.8702 162.761 9.8702ZM187.701 22.6514C187.805 21.9941 187.868 21.3054 187.868 20.5959C187.868 14.4297 183.721 9.91194 177.964 9.91194C172.207 9.91194 168.06 14.4193 168.06 20.5959C168.06 26.7726 172.228 31.3113 178.297 31.3113C184.366 31.3113 183.534 30.3931 185.831 28.5672L182.412 24.9989C181.3 25.9275 179.72 26.5118 177.954 26.5118C176.187 26.5118 174.057 24.9468 173.454 22.6618H187.691L187.701 22.6514ZM177.964 14.4923C180.344 14.4923 181.986 16.1825 182.537 18.624H173.392C173.942 16.1825 175.584 14.4923 177.964 14.4923ZM76.1323 5.69676H89.8082V0.041748H75.9452C72.9835 0.041748 70.5725 2.45191 70.5725 5.41505V30.8104H76.1427V18.238H86.7945V12.7186H76.1427V5.69676H76.1323ZM116.391 2.0763C114.78 2.0763 113.481 3.3805 113.481 4.99771C113.481 6.61492 114.78 7.91912 116.391 7.91912C118.002 7.91912 119.301 6.61492 119.301 4.99771C119.301 3.3805 118.002 2.0763 116.391 2.0763ZM162.729 2.0763C161.119 2.0763 159.82 3.3805 159.82 4.99771C159.82 6.61492 161.119 7.91912 162.729 7.91912C164.34 7.91912 165.639 6.61492 165.639 4.99771C165.639 3.3805 164.34 2.0763 162.729 2.0763ZM147.65 23.9034L142.517 10.1206H136.957L144.886 30.8209H150.415L158.344 10.1206H152.784L147.65 23.9034ZM214.534 10.1206L214.461 10.3501L210.315 23.5382L206.511 11.4665C206.158 10.4128 205.171 9.7137 204.069 9.7137C202.967 9.7137 201.98 10.4232 201.627 11.4665L197.823 23.5382L193.615 10.1519V10.1206H188.169L195.069 30.8209H200.546L204.079 20.3664L207.613 30.8209H213.089L219.99 10.1206H214.555H214.534Z" fill="#1C1840"/>
<path d="M27.4766 7.78347C29.6174 7.78347 31.3528 6.04108 31.3528 3.89173C31.3528 1.74239 29.6174 0 27.4766 0C25.3358 0 23.6003 1.74239 23.6003 3.89173C23.6003 6.04108 25.3358 7.78347 27.4766 7.78347Z" fill="#7993E8"/>
<path d="M51.077 7.78347C53.2178 7.78347 54.9533 6.04108 54.9533 3.89173C54.9533 1.74239 53.2178 0 51.077 0C48.9363 0 47.2008 1.74239 47.2008 3.89173C47.2008 6.04108 48.9363 7.78347 51.077 7.78347Z" fill="#FA7861"/>
<path d="M3.87624 7.78347C6.01703 7.78347 7.75248 6.04108 7.75248 3.89173C7.75248 1.74239 6.01703 0 3.87624 0C1.73545 0 0 1.74239 0 3.89173C0 6.04108 1.73545 7.78347 3.87624 7.78347Z" fill="#8CC96D"/>
<path d="M27.4766 19.5109C23.6938 19.5109 20.0462 18.1232 17.1988 15.6087C15.64 14.2315 15.4945 11.8422 16.8663 10.2876C18.238 8.72254 20.6178 8.57647 22.1662 9.95371C23.6315 11.2579 25.5228 11.9674 27.4766 11.9674C31.1969 11.9674 34.4081 9.43203 35.2914 5.81157C35.7798 3.78745 37.8167 2.54585 39.8327 3.04666C41.8488 3.53704 43.0854 5.58203 42.5866 7.60615C40.8823 14.6175 34.6679 19.5213 27.4662 19.5213L27.4766 19.5109Z" fill="#8CC96D"/>
<path d="M25.7204 31.3008C25.6268 31.3008 25.5333 31.3008 25.4398 31.2904C15.7336 30.5705 7.06661 24.6337 2.82665 15.8069C1.92254 13.9289 2.71233 11.6752 4.57251 10.7675C6.44309 9.85975 8.68777 10.6527 9.59188 12.5203C12.6783 18.9266 18.9551 23.2356 26.0009 23.7573C28.069 23.9138 29.6278 25.7188 29.4719 27.7951C29.3264 29.7775 27.6741 31.2904 25.7308 31.2904L25.7204 31.3008Z" fill="#FA7861"/>
<path d="M37.0582 29.3185C35.6241 29.3185 34.2419 28.4838 33.6184 27.0857C32.7766 25.1868 33.6184 22.954 35.5201 22.0984C39.7913 20.1891 43.2726 16.8086 45.3198 12.5934C46.2344 10.7153 48.479 9.94326 50.3496 10.8614C52.2098 11.7796 52.9892 14.0332 52.0747 15.9113C49.248 21.7228 44.4573 26.3657 38.5754 28.995C38.0766 29.2141 37.557 29.3185 37.0478 29.3185H37.0582Z" fill="#7993E8"/>
</g>
<defs>
<clipPath id="clip0_9958_1503">
<rect width="220" height="31.3008" fill="white"/>
</clipPath>
</defs>
</svg>
