
<svg xmlns="http://www.w3.org/2000/svg" width="146" height="82" viewBox="0 0 146 82" fill="none">
  <rect x="14.699" y="26.833" width="52.2199" height="4.58141" rx="2.29071" fill="#D8D8D8"></rect>
  <path d="M7.90161 9.08622C7.90161 4.06805 11.9696 0 16.9878 0H129.196C134.215 0 138.283 4.06803 138.283 9.08621V72.3864H7.90161V9.08622Z" fill="#152E63"></path>
  <path d="M14.4867 12.2968C14.4867 8.95135 17.1987 6.23932 20.5442 6.23932H124.324C127.669 6.23932 130.381 8.95134 130.381 12.2968V73.6239H14.4867V12.2968Z" fill="#7585A7"></path>
  <rect x="55.551" y="36.2537" width="31.5097" height="18.4491" fill="#04122B"></rect>
  <path fill-rule="evenodd" clip-rule="evenodd" d="M79.5514 53.8226H59.2288C51.2546 53.8226 44.8288 59.9479 44.8288 67.4669V72.1617H93.9901V67.4669C93.9901 59.9479 87.5256 53.8226 79.5514 53.8226Z" fill="#900021"></path>
  <path d="M54.9708 68.1271C54.9708 59.0309 59.3063 50.5215 69.487 50.5215C79.6676 50.5215 85.1644 58.1873 85.1644 67.2835V70.5111" stroke="#9EA4AD" stroke-width="1.45274"></path>
  <ellipse cx="85.164" cy="68.7139" rx="2.47742" ry="2.3474" fill="#9EA4AD"></ellipse>
  <path d="M69.7578 13.1098C59.9255 13.1098 51.9513 20.6655 51.9513 29.9817C51.9513 36.6205 57.4481 41.572 63.3707 44.3229L62.0158 53.8225H77.6546L75.9901 44.0295C83.0352 41.7921 87.5255 37.4274 87.5255 29.9817C87.5643 20.6655 79.5901 13.1098 69.7578 13.1098Z" fill="white"></path>
  <path d="M77.7327 60.2779C77.8488 60.9748 78.1198 61.1215 78.7778 61.1215C82.9585 61.0848 87.1004 61.0848 91.2811 61.1215C92.094 61.1215 92.2488 60.8647 92.1327 60.0945C91.9004 58.8108 91.823 57.527 91.7069 56.2066C91.0875 53.3457 90.8553 50.3748 90.4682 47.4772C89.5779 40.3616 88.8424 33.2461 87.8359 26.1672C86.7908 18.9049 81.8359 13.7333 74.7133 12.3762C66.623 10.8724 57.9907 13.1465 53.6939 22.3894C53.0359 23.7464 52.5327 25.2136 52.0681 26.644C51.7972 27.4876 52.0294 27.6343 52.8423 27.5977C57.0617 27.561 61.3198 27.5977 65.5391 27.5977C68.1714 27.5977 70.8036 27.6343 73.4359 27.561C74.1714 27.561 80.9069 27.4143 83.0746 27.6343" fill="#0C1E44"></path>
  <path d="M55.939 27.7071C58.1068 27.487 64.8423 27.6338 65.5778 27.6338C68.21 27.6704 70.8423 27.6704 73.4745 27.6704C77.6939 27.6704 81.952 27.6338 86.1713 27.6704C86.9842 27.7071 87.2165 27.5604 86.9455 26.7168C86.481 25.2864 85.9778 23.8559 85.3197 22.4621C81.0229 13.2192 72.4294 10.9452 64.3003 12.4123C57.1777 13.7327 52.2229 18.941 51.1777 26.2033C50.1326 33.2822 49.4358 40.3978 48.5455 47.5133C48.1584 50.4476 47.9261 53.3818 47.3068 56.2427C47.1906 57.5264 47.1132 58.8469 46.881 60.1306C46.7648 60.9008 46.9197 61.1576 47.7326 61.1576C51.9132 61.1209 56.0552 61.1209 60.2358 61.1576C60.8939 61.1576 61.2036 60.9742 61.281 60.314" fill="#0C1E44"></path>
  <path d="M59.9261 40.215C59.7325 38.9679 59.6164 37.8676 57.6422 38.271C56.7131 38.4544 55.939 37.6475 55.668 36.6572C55.4357 35.7402 55.2035 34.8233 55.0486 33.9063C54.739 32.4759 55.2422 31.5956 56.6744 31.1188C57.4099 30.8987 57.4873 30.7153 57.2164 30.0184" fill="white"></path>
  <path d="M81.6026 30.0184C81.3703 30.7153 81.4477 30.8987 82.1832 31.0821C83.6542 31.5222 84.1574 32.3658 83.9252 33.7963C83.7703 34.7132 83.5768 35.6669 83.3832 36.5838C83.151 37.6108 82.4155 38.4544 81.4865 38.271C79.5123 37.9409 79.4348 39.0413 79.28 40.2883" fill="white"></path>
  <path d="M45.9904 74.509C45.9904 73.7021 46.1452 72.8952 46.4162 72.1616C47.4226 69.5208 50.0936 67.6135 53.2678 67.6135H56.6356C59.771 67.6135 62.4807 69.5208 63.4872 72.1616C63.7581 72.8952 63.913 73.7021 63.913 74.509" stroke="#9EA4AD" stroke-width="1.45274"></path>
  <rect x="93.6699" y="9.125" width="32.1014" height="19.2639" rx="4.68507" fill="#B9C7DE"></rect>
  <path d="M0 76.9466C0 79.2466 1.86452 81.1111 4.16451 81.1111H141.568C143.868 81.1111 145.732 79.2466 145.732 76.9466V71.9861H0V76.9466Z" fill="#08142F"></path>
  <path fill-rule="evenodd" clip-rule="evenodd" d="M110.4 22.1797C108.899 21.5173 107.858 20.0747 107.858 18.4018C107.858 16.1016 109.825 14.2369 112.253 14.2369C114.681 14.2369 116.649 16.1016 116.649 18.4018C116.649 19.9339 115.776 21.2727 114.475 21.9961L114.476 21.996L114.488 22.0141L114.845 24.139H110.423L110.4 22.1797Z" fill="white"></path>
  <path d="M118.066 28.389C118.066 25.7133 115.897 23.5442 113.221 23.5442H111.518C108.842 23.5442 106.673 25.7133 106.673 28.389H118.066Z" fill="#FFDE70"></path>
  <ellipse cx="73.8332" cy="3.04166" rx="1.07005" ry="1.01389" fill="white"></ellipse>
</svg>
