
<svg xmlns="http://www.w3.org/2000/svg" width="146" height="83" viewBox="0 0 146 83" fill="none">
  <path d="M7.91699 9.64778C7.91699 4.66949 11.9527 0.633789 16.931 0.633789H129.524C134.502 0.633789 138.538 4.66949 138.538 9.64778V73.8523H7.91699V9.64778Z" fill="#152E63"></path>
  <path d="M14.5137 12.9537C14.5137 9.63481 17.2041 6.94434 20.523 6.94434H124.612C127.931 6.94434 130.621 9.6348 130.621 12.9537V75.1036H14.5137V12.9537Z" fill="#7585A7"></path>
  <path d="M0 78.5463C0 80.828 1.8497 82.6777 4.13141 82.6777H141.869C144.15 82.6777 146 80.828 146 78.5463V73.4478H0V78.5463Z" fill="#08142F"></path>
  <ellipse cx="73.9695" cy="3.71011" rx="1.07201" ry="1.02554" fill="white"></ellipse>
  <path d="M92.4318 14.1504H54.5105C53.0172 14.1504 51.8066 15.4424 51.8066 17.0361V68.9354C51.8066 70.5291 53.0172 71.8211 54.5105 71.8211H92.4318C93.9251 71.8211 95.1357 70.5291 95.1357 68.9354V17.0361C95.1357 15.4424 93.9251 14.1504 92.4318 14.1504Z" fill="#152E63"></path>
  <path d="M88.4454 59.1826H58.2026C57.5384 59.1826 57 59.6977 57 60.3331V60.3396C57 60.975 57.5384 61.4901 58.2026 61.4901H88.4454C89.1096 61.4901 89.648 60.975 89.648 60.3396V60.3331C89.648 59.6977 89.1096 59.1826 88.4454 59.1826Z" fill="#7585A7"></path>
  <path d="M88.4454 64.1826H58.2026C57.5384 64.1826 57 64.6977 57 65.3331V65.3396C57 65.975 57.5384 66.4901 58.2026 66.4901H88.4454C89.1096 66.4901 89.648 65.975 89.648 65.3396V65.3331C89.648 64.6977 89.1096 64.1826 88.4454 64.1826Z" fill="#7585A7"></path>
  <path d="M83.8039 21.3135H62.0383C61.0695 21.3135 60.2842 22.0648 60.2842 22.9915V50.8159C60.2842 51.7427 61.0695 52.494 62.0383 52.494H83.8039C84.7727 52.494 85.558 51.7427 85.558 50.8159V22.9915C85.558 22.0648 84.7727 21.3135 83.8039 21.3135Z" fill="white"></path>
  <path fill-rule="evenodd" clip-rule="evenodd" d="M66.9062 40.2637H81.9401C82.0603 40.2636 82.1753 40.3104 82.2585 40.3933C82.3418 40.4763 82.386 40.5881 82.381 40.703V41.151C82.3859 41.2667 82.342 41.3794 82.259 41.4637C82.1761 41.548 82.0611 41.5968 81.9401 41.5991H66.9062C66.7845 41.5968 66.6686 41.5483 66.5842 41.4642C66.4998 41.3802 66.4538 41.2675 66.4561 41.151V40.703C66.4538 40.5873 66.5001 40.4755 66.5847 40.3929C66.6694 40.3102 66.7853 40.2636 66.9062 40.2637Z" fill="#EAEAEA"></path>
  <path d="M64.3696 41.8538C64.8768 41.8538 65.2879 41.4605 65.2879 40.9752C65.2879 40.49 64.8768 40.0967 64.3696 40.0967C63.8623 40.0967 63.4512 40.49 63.4512 40.9752C63.4512 41.4605 63.8623 41.8538 64.3696 41.8538Z" fill="#EAEAEA"></path>
  <path fill-rule="evenodd" clip-rule="evenodd" d="M66.9062 43.4619H81.9401C82.0603 43.4618 82.1753 43.5086 82.2585 43.5916C82.3418 43.6745 82.386 43.7863 82.381 43.9012V44.3581C82.386 44.4729 82.3418 44.5848 82.2585 44.6677C82.1753 44.7506 82.0603 44.7974 81.9401 44.7973H66.9062C66.7853 44.7974 66.6694 44.7508 66.5847 44.6682C66.5001 44.5855 66.4538 44.4737 66.4561 44.3581V43.9012C66.4538 43.7855 66.5001 43.6737 66.5847 43.5911C66.6694 43.5084 66.7853 43.4619 66.9062 43.4619Z" fill="#EAEAEA"></path>
  <path d="M64.3696 45.0521C64.8768 45.0521 65.2879 44.6587 65.2879 44.1735C65.2879 43.6883 64.8768 43.2949 64.3696 43.2949C63.8623 43.2949 63.4512 43.6883 63.4512 44.1735C63.4512 44.6587 63.8623 45.0521 64.3696 45.0521Z" fill="#EAEAEA"></path>
  <path fill-rule="evenodd" clip-rule="evenodd" d="M66.9062 46.6602H81.9401C82.0611 46.6624 82.1761 46.7112 82.259 46.7955C82.342 46.8798 82.3859 46.9925 82.381 47.1082V47.5563C82.386 47.6712 82.3418 47.783 82.2585 47.8659C82.1753 47.9488 82.0603 47.9957 81.9401 47.9956H66.9062C66.7853 47.9956 66.6694 47.949 66.5847 47.8664C66.5001 47.7838 66.4538 47.672 66.4561 47.5563V47.1082C66.4538 46.9917 66.4998 46.879 66.5842 46.795C66.6686 46.711 66.7845 46.6625 66.9062 46.6602Z" fill="#EAEAEA"></path>
  <path d="M64.3696 48.2503C64.8768 48.2503 65.2879 47.857 65.2879 47.3717C65.2879 46.8865 64.8768 46.4932 64.3696 46.4932C63.8623 46.4932 63.4512 46.8865 63.4512 47.3717C63.4512 47.857 63.8623 48.2503 64.3696 48.2503Z" fill="#EAEAEA"></path>
  <path d="M83.4639 24.564V35.4232H62.5248V24.564C62.5248 23.9187 63.0716 23.3955 63.7462 23.3955H82.2424C82.917 23.3955 83.4639 23.9187 83.4639 24.564Z" fill="#FFDD59"></path>
  <path d="M73.2875 26.7256H72.8742C72.6206 26.7256 72.415 26.9223 72.415 27.1649V32.6735C72.415 32.9161 72.6206 33.1128 72.8742 33.1128H73.2875C73.5411 33.1128 73.7467 32.9161 73.7467 32.6735V27.1649C73.7467 26.9223 73.5411 26.7256 73.2875 26.7256Z" fill="#860014"></path>
  <path fill-rule="evenodd" clip-rule="evenodd" d="M69.7803 30.1169V29.7215C69.7803 29.4789 69.9859 29.2822 70.2395 29.2822H75.9702C76.2238 29.2822 76.4293 29.4789 76.4293 29.7215V30.1169C76.4293 30.3595 76.2238 30.5562 75.9702 30.5562H70.2395C69.9859 30.5562 69.7803 30.3595 69.7803 30.1169Z" fill="#860014"></path>
  <path fill-rule="evenodd" clip-rule="evenodd" d="M65.9492 20.127H79.8811V22.4376C79.9224 23.5215 79.0394 24.433 77.9065 24.4759H67.9421C66.8093 24.433 65.9262 23.5215 65.9676 22.4376V20.127H65.9492Z" fill="#860014"></path>
  <path d="M73.0847 22.218C74.2615 22.218 75.2154 21.2189 75.2154 19.9865C75.2154 18.754 74.2615 17.7549 73.0847 17.7549C71.908 17.7549 70.9541 18.754 70.9541 19.9865C70.9541 21.2189 71.908 22.218 73.0847 22.218Z" fill="#860014"></path>
  <path d="M43.7899 19.7324H5.55253C4.04681 19.7324 2.82617 20.9001 2.82617 22.3406V69.2486C2.82617 70.6891 4.04681 71.8568 5.55253 71.8568H43.7899C45.2957 71.8568 46.5163 70.6891 46.5163 69.2486V22.3406C46.5163 20.9001 45.2957 19.7324 43.7899 19.7324Z" fill="#152E63"></path>
  <path d="M39.4454 59.1826H9.20261C8.53843 59.1826 8 59.6977 8 60.3331V60.3396C8 60.975 8.53843 61.4901 9.20261 61.4901H39.4454C40.1096 61.4901 40.648 60.975 40.648 60.3396V60.3331C40.648 59.6977 40.1096 59.1826 39.4454 59.1826Z" fill="#7585A7"></path>
  <path d="M39.4454 64.1826H9.20261C8.53843 64.1826 8 64.6977 8 65.3331V65.3396C8 65.975 8.53843 66.4901 9.20261 66.4901H39.4454C40.1096 66.4901 40.648 65.975 40.648 65.3396V65.3331C40.648 64.6977 40.1096 64.1826 39.4454 64.1826Z" fill="#7585A7"></path>
  <path d="M141.052 19.7324H102.814C101.309 19.7324 100.088 20.9001 100.088 22.3406V69.2486C100.088 70.6891 101.309 71.8568 102.814 71.8568H141.052C142.557 71.8568 143.778 70.6891 143.778 69.2486V22.3406C143.778 20.9001 142.557 19.7324 141.052 19.7324Z" fill="#152E63"></path>
  <path d="M137.445 59.1826H107.203C106.538 59.1826 106 59.6977 106 60.3331V60.3396C106 60.975 106.538 61.4901 107.203 61.4901H137.445C138.11 61.4901 138.648 60.975 138.648 60.3396V60.3331C138.648 59.6977 138.11 59.1826 137.445 59.1826Z" fill="#7585A7"></path>
  <path d="M137.445 64.1826H107.203C106.538 64.1826 106 64.6977 106 65.3331V65.3396C106 65.975 106.538 66.4901 107.203 66.4901H137.445C138.11 66.4901 138.648 65.975 138.648 65.3396V65.3331C138.648 64.6977 138.11 64.1826 137.445 64.1826Z" fill="#7585A7"></path>
  <g clip-path="url(#clip0_2668_8034)">
    <g clip-path="url(#clip1_2668_8034)">
      <path d="M122.474 39.2443C120.185 39.2443 118.323 37.463 118.323 35.2726C118.323 33.0821 120.185 31.3008 122.474 31.3008C124.764 31.3008 126.626 33.0821 126.626 35.2726C126.626 37.463 124.764 39.2443 122.474 39.2443ZM122.474 32.6247C120.948 32.6247 119.707 33.8123 119.707 35.2726C119.707 36.7329 120.948 37.9204 122.474 37.9204C124.001 37.9204 125.242 36.7329 125.242 35.2726C125.242 33.8123 124.001 32.6247 122.474 32.6247ZM116.758 47.1879C115.866 47.1879 115.113 46.5266 115.044 45.6833L114.176 35.0435C114.14 34.5947 114.302 34.1472 114.623 33.8156C114.948 33.4793 115.41 33.2867 115.89 33.2867H119.002C119.384 33.2867 119.384 34.6106 119.002 34.6106H115.89C115.759 34.6106 115.677 34.6755 115.639 34.7145C115.605 34.7509 115.547 34.8284 115.556 34.9403L116.423 45.5793C116.436 45.7395 116.583 45.864 116.758 45.864H128.191C128.365 45.864 128.513 45.7395 128.525 45.5793L129.393 34.9403C129.402 34.8277 129.345 34.7496 129.31 34.7139C129.272 34.6755 129.19 34.6106 129.059 34.6106C128.644 34.6106 128.333 34.6106 128.126 34.6106C128.1 34.6106 127.361 34.6106 125.907 34.6106C125.907 34.6106 125.907 34.1693 125.907 33.2867H129.059C129.539 33.2867 130.001 33.4793 130.325 33.8149C130.647 34.1466 130.809 34.5947 130.772 35.0429L129.905 45.6826C129.836 46.5266 129.083 47.1879 128.191 47.1879H116.758ZM122.393 36.0226C122.261 36.0226 122.128 35.9868 122.009 35.9114C121.692 35.7088 121.606 35.2977 121.818 34.9932L122.833 33.5369C123.045 33.2331 123.474 33.1496 123.793 33.3535C124.111 33.5561 124.197 33.9672 123.984 34.2717L122.969 35.728C122.836 35.9193 122.616 36.0226 122.393 36.0226Z" fill="#FFDD59"></path>
    </g>
  </g>
  <g clip-path="url(#clip2_2668_8034)">
    <path fill-rule="evenodd" clip-rule="evenodd" d="M26.5259 39.6759C27.3423 40.4563 28.7686 40.4563 29.5843 39.6759C29.9929 39.2857 30.2179 38.7661 30.2179 38.2133C30.2179 37.9528 30.1679 37.6986 30.0712 37.4614L30.0075 37.3211L30.022 37.2398L32.9842 34.4063C33.1488 34.2488 33.1489 33.9858 32.9842 33.8283L30.5048 31.4557C30.3502 31.3078 30.1065 31.3077 29.9518 31.4556L26.9628 34.314L26.878 34.3279C26.0765 33.9623 25.0499 34.1266 24.4157 34.7327C23.5731 35.5395 23.5731 36.8518 24.4155 37.6585C24.758 37.9849 25.1942 38.189 25.6668 38.2473L25.8256 38.2612L25.8959 38.3285C25.9255 38.8389 26.147 39.3134 26.5259 39.6759ZM27.4746 38.7681C27.3198 38.6199 27.2344 38.4228 27.2344 38.2134C27.2344 38.0336 27.2969 37.8635 27.412 37.7255L27.4253 37.7126L26.4701 36.7981L26.4561 36.8093C26.1641 37.0285 25.7272 37.0287 25.435 36.81L25.3651 36.7507C25.0459 36.4445 25.0461 35.9457 25.3659 35.6405C25.6544 35.3646 26.1408 35.3449 26.4567 35.5819L26.5265 35.6412L26.7935 35.8969C26.9095 36.0079 27.0924 36.0079 27.2084 35.8969L30.1755 33.0575L30.2809 33.0575L31.336 34.0662L31.3361 34.1671L28.3871 36.9885C28.2636 37.1067 28.2637 37.304 28.3872 37.4222L28.6353 37.6593C28.7676 37.7859 28.8491 37.9485 28.8697 38.1244L28.8748 38.2134C28.8748 38.4228 28.7894 38.6199 28.6346 38.768C28.3244 39.0664 27.7856 39.0664 27.4746 38.7681ZM23.2527 38.8124C22.4363 38.032 21.01 38.032 20.1943 38.8123C19.7857 39.2025 19.5607 39.7221 19.5607 40.2749C19.5607 40.5354 19.6106 40.7896 19.7074 41.0269L19.7711 41.1671L19.7566 41.2484L16.7944 44.0819C16.6297 44.2394 16.6297 44.5024 16.7944 44.66L19.2738 47.0325C19.4284 47.1805 19.6721 47.1805 19.8268 47.0326L22.8158 44.1742L22.9006 44.1603C23.7021 44.5259 24.7287 44.3616 25.3629 43.7555C26.2055 42.9488 26.2055 41.6364 25.363 40.8298C25.0205 40.5034 24.5844 40.2992 24.1118 40.241L23.953 40.227L23.8827 40.1597C23.8531 39.6493 23.6316 39.1748 23.2527 38.8124ZM22.304 39.7202C22.4588 39.8683 22.5442 40.0655 22.5442 40.2749C22.5442 40.4547 22.4817 40.6248 22.3666 40.7628L22.3534 40.7757L23.3086 41.6902L23.3225 41.679C23.6145 41.4598 24.0514 41.4596 24.3436 41.6783L24.4135 41.7375C24.7327 42.0437 24.7325 42.5426 24.4127 42.8477C24.1242 43.1237 23.6378 43.1434 23.3219 42.9063L23.2521 42.847L22.9851 42.5914C22.8691 42.4803 22.6862 42.4803 22.5702 42.5913L19.6031 45.4307L19.4977 45.4308L18.4426 44.4221L18.4425 44.3212L21.3915 41.4997C21.515 41.3815 21.5149 41.1842 21.3914 41.0661L21.1434 40.829C21.011 40.7023 20.9295 40.5398 20.9089 40.3639L20.9038 40.2749C20.9038 40.0655 20.9892 39.8683 21.144 39.7203C21.4542 39.4219 21.993 39.4219 22.304 39.7202Z" fill="#FFDD59"></path>
  </g>
  <defs>
    <clipPath id="clip0_2668_8034">
      <rect width="16.6067" height="15.8868" fill="white" transform="translate(114.171 31.3008)"></rect>
    </clipPath>
    <clipPath id="clip1_2668_8034">
      <rect width="16.6067" height="15.8868" fill="white" transform="translate(114.171 31.3008)"></rect>
    </clipPath>
    <clipPath id="clip2_2668_8034">
      <rect width="16.6066" height="15.8868" fill="white" transform="translate(16.6064 31.3008)"></rect>
    </clipPath>
  </defs>
</svg>
