<svg width="106" height="28" viewBox="0 0 106 28" fill="none" xmlns="http://www.w3.org/2000/svg">
<g clip-path="url(#clip0_9370_1076)">
<path d="M10.9993 0C12.9018 1.89359 13.5035 2.69991 15.5261 4.77762C18.5605 7.89314 21.9999 11.4244 22 16.7198C22.0005 18.2046 21.7158 19.6751 21.1633 21.047C20.6107 22.4189 19.8005 23.6657 18.779 24.7158C17.7575 25.7659 16.5444 26.5988 15.2097 27.1671C14.1107 27.635 12.9467 27.9153 11.7634 28V22.5167C12.4241 22.7916 13.1397 22.9282 13.866 22.908L13.8652 22.9073C16.5913 22.8378 18.8617 20.5028 18.8546 17.7827C18.8516 16.7651 18.544 15.7707 17.9719 14.9283C17.4621 14.1778 16.7627 13.5775 15.9471 13.1871C15.5504 12.2817 14.9114 11.4998 14.0965 10.9311C13.19 10.2985 12.1105 9.95911 11.0044 9.95911C9.8984 9.95911 8.81884 10.2985 7.91241 10.9311C7.09719 11.5 6.45773 12.282 6.06104 13.1878C5.24532 13.5785 4.54521 14.1789 4.03551 14.9298C3.46354 15.7726 3.15673 16.767 3.15429 17.785C3.14706 20.5053 5.41841 22.84 8.14439 22.9095C8.8703 22.929 9.58543 22.7933 10.2455 22.5182V28C9.05891 27.9162 7.89149 27.6363 6.78958 27.1671C5.53836 26.6343 4.39416 25.8691 3.41443 24.9103L3.221 24.7158C2.19952 23.6657 1.38859 22.419 0.836006 21.047C0.283498 19.6751 -0.000453875 18.2046 5.44555e-07 16.7198C5.92638e-05 12.086 2.63316 8.80316 5.32361 5.96777L6.47312 4.77762C8.49537 2.69995 9.48659 1.89359 10.9993 0Z" fill="#10341F"/>
<path d="M11.0044 11.474C11.7992 11.474 12.575 11.7178 13.2264 12.1722C13.8777 12.6268 14.3735 13.2706 14.6464 14.0155C14.7202 14.2172 14.8767 14.3785 15.0763 14.4586C15.7421 14.7257 16.313 15.1854 16.7157 15.7782C17.1183 16.371 17.3346 17.0703 17.3367 17.7864C17.3418 19.6852 15.7263 21.345 13.826 21.3931H13.8237C13.0908 21.4135 12.3726 21.2089 11.7634 20.8118V18.268L14.6168 16.8441C14.9916 16.657 15.1436 16.2019 14.9562 15.8278C14.7688 15.4536 14.3128 15.3019 13.9379 15.489L11.7634 16.5741V15.0777C11.7634 14.6594 11.4236 14.3203 11.0044 14.3203C10.5853 14.3203 10.2455 14.6594 10.2455 15.0777V18.2073L8.07102 17.1222C7.69612 16.9351 7.24013 17.0868 7.05269 17.461C6.86528 17.8351 7.01727 18.2902 7.39213 18.4773L10.2455 19.9012V20.8118C9.63649 21.2099 8.91847 21.4159 8.18515 21.3961H8.18367C6.28318 21.3479 4.6672 19.6879 4.67215 17.7894C4.67385 17.0729 4.88986 16.3721 5.29248 15.7789C5.69519 15.1858 6.26649 14.7258 6.93262 14.4586C7.13222 14.3785 7.28865 14.2172 7.36249 14.0155C7.63535 13.2706 8.13122 12.6268 8.78251 12.1722C9.43389 11.7178 10.2097 11.474 11.0044 11.474Z" fill="#10341F"/>
<path d="M31.4 26V25.188C32.0907 25.188 32.5853 25.1507 32.884 25.076C33.1827 25.0013 33.3693 24.852 33.444 24.628C33.5187 24.404 33.556 24.068 33.556 23.62V9.928C33.556 9.48 33.5187 9.144 33.444 8.92C33.3693 8.696 33.1827 8.54667 32.884 8.472C32.5853 8.37867 32.0907 8.332 31.4 8.332V7.52H38.288V8.332C37.616 8.332 37.1213 8.37867 36.804 8.472C36.5053 8.54667 36.3187 8.696 36.244 8.92C36.1693 9.144 36.132 9.48 36.132 9.928V15.836H45.148V9.928C45.148 9.48 45.1107 9.144 45.036 8.92C44.9613 8.696 44.7747 8.54667 44.476 8.472C44.1773 8.37867 43.6827 8.332 42.992 8.332V7.52H49.88V8.332C49.208 8.332 48.7133 8.37867 48.396 8.472C48.0973 8.54667 47.9107 8.696 47.836 8.92C47.7613 9.144 47.724 9.48 47.724 9.928V23.62C47.724 24.068 47.7613 24.404 47.836 24.628C47.9293 24.852 48.1253 25.0013 48.424 25.076C48.7227 25.1507 49.208 25.188 49.88 25.188V26H42.992V25.188C43.6827 25.188 44.1773 25.1507 44.476 25.076C44.7747 25.0013 44.9613 24.852 45.036 24.628C45.1107 24.404 45.148 24.068 45.148 23.62V16.9H36.132V23.62C36.132 24.068 36.1693 24.404 36.244 24.628C36.3187 24.852 36.5053 25.0013 36.804 25.076C37.1213 25.1507 37.616 25.188 38.288 25.188V26H31.4ZM61.5501 26.28C61.2141 26.28 60.9061 26.2333 60.6261 26.14C60.3648 26.0467 60.1501 25.8413 59.9821 25.524C59.8328 25.2067 59.7581 24.712 59.7581 24.04V16.424C59.7581 15.528 59.5714 14.8373 59.1981 14.352C58.8248 13.848 58.1621 13.596 57.2101 13.596C56.7434 13.596 56.3141 13.6613 55.9221 13.792C55.5488 13.904 55.2408 14.044 54.9981 14.212C54.7741 14.38 54.6621 14.5387 54.6621 14.688C54.6621 14.8373 54.7274 14.9587 54.8581 15.052C55.0074 15.1453 55.1474 15.2667 55.2781 15.416C55.4274 15.5653 55.5021 15.808 55.5021 16.144C55.5021 16.536 55.3901 16.8533 55.1661 17.096C54.9421 17.32 54.6248 17.432 54.2141 17.432C53.7848 17.432 53.4394 17.3013 53.1781 17.04C52.9354 16.7787 52.8141 16.4147 52.8141 15.948C52.8141 15.388 52.9914 14.856 53.3461 14.352C53.7194 13.848 54.2888 13.4373 55.0541 13.12C55.8194 12.784 56.7901 12.616 57.9661 12.616C59.3101 12.616 60.3368 12.896 61.0461 13.456C61.7554 13.9973 62.1101 15.0147 62.1101 16.508V23.144C62.1101 23.8907 62.1848 24.3947 62.3341 24.656C62.5021 24.9173 62.7634 25.048 63.1181 25.048C63.2861 25.048 63.4261 25.0293 63.5381 24.992C63.6501 24.9547 63.7714 24.908 63.9021 24.852L64.0981 25.552C63.8928 25.6827 63.5848 25.832 63.1741 26C62.7821 26.1867 62.2408 26.28 61.5501 26.28ZM55.5581 26.308C54.5874 26.308 53.7661 26.084 53.0941 25.636C52.4221 25.1693 52.0861 24.46 52.0861 23.508C52.0861 22.612 52.4034 21.7907 53.0381 21.044C53.6728 20.2787 54.6061 19.6347 55.8381 19.112C57.0888 18.5707 58.6194 18.188 60.4301 17.964V18.804C58.4701 19.1587 57.0048 19.6627 56.0341 20.316C55.0821 20.9693 54.6061 21.8093 54.6061 22.836C54.6061 23.4893 54.7928 23.984 55.1661 24.32C55.5581 24.6373 56.0994 24.796 56.7901 24.796C57.2941 24.796 57.7608 24.7027 58.1901 24.516C58.6194 24.3293 59.0114 24.1053 59.3661 23.844C59.7394 23.564 60.0848 23.2933 60.4021 23.032V23.928C59.9168 24.376 59.4221 24.7773 58.9181 25.132C58.4328 25.4867 57.9194 25.776 57.3781 26C56.8368 26.2053 56.2301 26.308 55.5581 26.308ZM69.8167 26L65.6167 14.856C65.43 14.3893 65.2247 14.0813 65.0007 13.932C64.7767 13.7827 64.3567 13.708 63.7407 13.708V12.896H69.5647V13.708H68.4447C68.1833 13.708 68.0153 13.792 67.9407 13.96C67.8847 14.128 67.894 14.3333 67.9687 14.576L71.1887 23.34H71.2447L74.4367 14.548C74.5113 14.3427 74.5207 14.156 74.4647 13.988C74.4087 13.8013 74.2593 13.708 74.0167 13.708H72.7847V12.896H77.4607V13.708C76.8633 13.708 76.4433 13.792 76.2007 13.96C75.958 14.128 75.7433 14.4267 75.5567 14.856L71.1607 26H69.8167ZM83.2608 26.308C81.2261 26.308 79.7235 25.72 78.7528 24.544C77.8008 23.3493 77.3248 21.6973 77.3248 19.588C77.3248 18.132 77.5395 16.8813 77.9688 15.836C78.4168 14.7907 79.0795 13.988 79.9568 13.428C80.8528 12.868 81.9635 12.588 83.2888 12.588C84.4648 12.588 85.4168 12.7933 86.1448 13.204C86.8728 13.596 87.4328 14.128 87.8248 14.8C88.2168 15.4533 88.4781 16.172 88.6088 16.956C88.7581 17.74 88.8328 18.524 88.8328 19.308V19.56H79.4248L79.4528 18.664H86.2288C86.2288 17.544 86.1355 16.6013 85.9488 15.836C85.7808 15.052 85.4821 14.464 85.0528 14.072C84.6421 13.6613 84.0635 13.456 83.3168 13.456C82.5328 13.456 81.8888 13.6707 81.3848 14.1C80.8995 14.5293 80.5355 15.164 80.2928 16.004C80.0688 16.8253 79.9475 17.8427 79.9288 19.056C79.9288 19.8587 79.9755 20.624 80.0688 21.352C80.1808 22.08 80.3768 22.7333 80.6568 23.312C80.9555 23.8907 81.3661 24.348 81.8888 24.684C82.4301 25.02 83.1301 25.188 83.9888 25.188C84.7915 25.188 85.4541 25.048 85.9768 24.768C86.4995 24.4693 86.9195 24.0867 87.2368 23.62C87.5541 23.1533 87.7968 22.6773 87.9648 22.192L88.7208 22.528C88.5155 23.1627 88.2075 23.7693 87.7968 24.348C87.4048 24.9267 86.8448 25.4027 86.1168 25.776C85.4075 26.1307 84.4555 26.308 83.2608 26.308ZM98.9369 26V25.188C99.4969 25.188 99.9075 25.16 100.169 25.104C100.43 25.048 100.598 24.9173 100.673 24.712C100.748 24.5067 100.785 24.18 100.785 23.732V16.928C100.785 16.368 100.701 15.864 100.533 15.416C100.365 14.968 100.085 14.6133 99.6929 14.352C99.3195 14.072 98.8155 13.932 98.1809 13.932C97.3222 13.932 96.6222 14.1653 96.0809 14.632C95.5395 15.0987 95.0542 15.64 94.6249 16.256V15.052C95.0729 14.492 95.5302 14.0347 95.9969 13.68C96.4635 13.3067 96.9675 13.036 97.5089 12.868C98.0689 12.6813 98.6849 12.588 99.3569 12.588C100.626 12.588 101.569 12.924 102.185 13.596C102.82 14.268 103.137 15.276 103.137 16.62V23.676C103.137 24.1053 103.174 24.432 103.249 24.656C103.324 24.8613 103.492 25.0013 103.753 25.076C104.033 25.1507 104.472 25.188 105.069 25.188V26H98.9369ZM90.5649 26V25.188C91.1809 25.188 91.6195 25.1507 91.8809 25.076C92.1422 25.0013 92.3009 24.8613 92.3569 24.656C92.4315 24.432 92.4689 24.1053 92.4689 23.676V15.332C92.4689 14.8467 92.4129 14.5293 92.3009 14.38C92.1889 14.212 91.9742 14.128 91.6569 14.128H90.7049V13.288L94.0089 12.728H94.7649V14.8H94.8489V23.732C94.8489 24.18 94.8862 24.5067 94.9609 24.712C95.0355 24.9173 95.2035 25.048 95.4649 25.104C95.7449 25.16 96.1555 25.188 96.6969 25.188V26H90.5649Z" fill="#10341F"/>
</g>
<defs>
<clipPath id="clip0_9370_1076">
<rect width="106" height="28" fill="white"/>
</clipPath>
</defs>
</svg>
