
<svg xmlns="http://www.w3.org/2000/svg" width="40" height="40" fill="none">
  <path fill-rule="evenodd" clip-rule="evenodd" d="M33.034 18.317H7.198a.47.47 0 0 0-.47.47v17.615c0 .26.21.47.47.47h25.836c.26 0 .47-.21.47-.47V18.786a.47.47 0 0 0-.47-.47Zm-25.836-1.88a2.349 2.349 0 0 0-2.349 2.35v17.615a2.349 2.349 0 0 0 2.349 2.349h25.836a2.349 2.349 0 0 0 2.349-2.349V18.786a2.349 2.349 0 0 0-2.349-2.349H7.198Z" fill="#6A0910"></path>
  <path fill-rule="evenodd" clip-rule="evenodd" d="M23.639 26.537h-7.047a.47.47 0 0 0-.47.47v9.865h7.986v-9.865a.47.47 0 0 0-.47-.47Zm-7.047-1.879a2.349 2.349 0 0 0-2.348 2.349v11.744h11.744V27.007a2.349 2.349 0 0 0-2.35-2.349h-7.046Z" fill="#6A0910"></path>
  <path d="M2.5 16.436a2.349 2.349 0 0 0 2.349 2.35h30.534a2.349 2.349 0 0 0 2.348-2.35V11.74a2.349 2.349 0 0 0-2.348-2.349H4.849A2.349 2.349 0 0 0 2.5 11.74v4.697Z" fill="#fff"></path>
  <path fill-rule="evenodd" clip-rule="evenodd" d="M35.383 16.906H4.849a.47.47 0 0 1-.47-.47V11.74c0-.26.21-.47.47-.47h30.534c.26 0 .47.21.47.47v4.697c0 .26-.21.47-.47.47Zm-30.534 1.88a2.349 2.349 0 0 1-2.349-2.35V11.74A2.349 2.349 0 0 1 4.849 9.39h30.534a2.349 2.349 0 0 1 2.348 2.349v4.697a2.349 2.349 0 0 1-2.348 2.35H4.849Z" fill="#6A0910"></path>
  <path d="M28.336 9.39a8.22 8.22 0 1 1-16.441 0 8.22 8.22 0 0 1 16.441 0Z" fill="#fff"></path>
  <path fill-rule="evenodd" clip-rule="evenodd" d="M20.116 16.643a7.248 7.248 0 1 0 0-14.496 7.248 7.248 0 0 0 0 14.496Zm0 2.147a9.395 9.395 0 1 0 0-18.79 9.395 9.395 0 0 0 0 18.79Z" fill="#6A0910"></path>
  <path fill-rule="evenodd" clip-rule="evenodd" d="M15.418 9.395c0-.649.443-1.174.99-1.174h7.417c.546 0 .989.525.989 1.174 0 .649-.443 1.175-.99 1.175h-7.417c-.546 0-.989-.526-.989-1.175Z" fill="#6A0910"></path>
  <path fill-rule="evenodd" clip-rule="evenodd" d="M20.116 14.092c-.649 0-1.175-.443-1.175-.99V5.687c0-.546.526-.99 1.175-.99.648 0 1.174.444 1.174.99v7.417c0 .546-.526.989-1.174.989Z" fill="#6A0910"></path>
</svg>
