
<svg xmlns="http://www.w3.org/2000/svg" width="40" height="43" fill="none">
  <path fill-rule="evenodd" clip-rule="evenodd" d="m21.456 25.002-7.44.186a1.157 1.157 0 0 1-.89-.384c-1.776-1.978-3.852-2.445-5.786-2.292-1.25.099-1.97.848-2.232 1.905-.277 1.118-.015 2.568.883 3.752l.444.586a1.157 1.157 0 0 1-1.844 1.398l-.445-.586c-1.29-1.702-1.741-3.864-1.284-5.707.472-1.905 1.936-3.469 4.296-3.655 2.367-.187 5.04.37 7.316 2.656l7.061-.176c.063-.002.125.002.187.01l-.158 1.147c.158-1.147.159-1.146.16-1.146h.003l.006.001.014.002a2.422 2.422 0 0 1 .14.026 3.762 3.762 0 0 1 1.247.53c.722.48 1.44 1.335 1.577 2.721a2.574 2.574 0 0 1 .028.356 3.74 3.74 0 0 1-.085.876c-.155.712-.562 1.588-1.503 2.301-.18.137-.397.217-.622.232l-8.32.556a1.157 1.157 0 0 1-.154-2.31l7.932-.529a1.506 1.506 0 0 0 .439-1.072.845.845 0 0 0-.005-.074v-.002a1.134 1.134 0 0 1-.011-.086c-.056-.618-.33-.89-.555-1.04a1.451 1.451 0 0 0-.399-.182Z" fill="#6A0910"></path>
  <path fill-rule="evenodd" clip-rule="evenodd" d="M34.728 18.771c-1.402-.19-2.77.22-3.61.641a1.16 1.16 0 0 0-.183.113l-8.068 6.115a1.157 1.157 0 1 0 1.398 1.845l7.976-6.046c.565-.262 1.407-.48 2.175-.375.544.074 1.09.308 1.518.93L24.856 31.76a1.14 1.14 0 0 0-.076.073c-.363.385-1.163 1.018-2.157 1.384-.704.26-1.49.332-2.405.327-.381-.001-.764-.016-1.168-.03l-.248-.01a24.011 24.011 0 0 0-1.52-.018l-7.304.198L5.5 27.329a1.157 1.157 0 1 0-1.891 1.334l4.836 6.86c.223.316.59.5.977.49l7.924-.215c.439-.012.891 0 1.374.018l.234.008c.404.016.831.032 1.254.034 1.014.004 2.126-.068 3.217-.47 1.342-.496 2.416-1.322 3-1.926l11.712-10.324c.364-.321.49-.835.313-1.287-.77-1.984-2.22-2.875-3.72-3.08ZM17.361 3.328a3.572 3.572 0 0 0-5.058.465 3.582 3.582 0 0 0 .15 4.722l8.233 8.803 7.926-8.828a3.524 3.524 0 0 0 .099-4.592 3.514 3.514 0 0 0-5.082-.365l-2.892 2.635-3.376-2.84ZM10.383 2.21a6.057 6.057 0 0 1 8.578-.788l1.71 1.44 1.284-1.17a6 6 0 0 1 8.675.623 6.015 6.015 0 0 1-.169 7.84L20.723 21 10.637 10.216a6.073 6.073 0 0 1-.254-8.006Z" fill="#6A0910"></path>
</svg>
