
<svg xmlns="http://www.w3.org/2000/svg" width="32" height="33" fill="none">
  <path fill-rule="evenodd" clip-rule="evenodd" d="M19.862 20.861a1.61 1.61 0 0 1 2.276 0l8 8a1.61 1.61 0 1 1-2.276 2.277l-8-8a1.61 1.61 0 0 1 0-2.277Z" fill="#6A0910"></path>
  <path fill-rule="evenodd" clip-rule="evenodd" d="M12.571 23.314c5.934 0 10.743-4.81 10.743-10.743 0-5.933-4.81-10.742-10.743-10.742-5.933 0-10.742 4.81-10.742 10.742 0 5.934 4.81 10.743 10.742 10.743Zm0 1.829c6.944 0 12.572-5.628 12.572-12.572C25.143 5.628 19.515 0 12.57 0 5.628 0 0 5.628 0 12.571c0 6.944 5.628 12.572 12.571 12.572Z" fill="#6A0910"></path>
  <path fill-rule="evenodd" clip-rule="evenodd" d="M9.143 6.628a1.371 1.371 0 1 1 0 2.743 1.371 1.371 0 0 1 0-2.743ZM12.343 8a3.2 3.2 0 1 0-6.4 0 3.2 3.2 0 0 0 6.4 0ZM19.374 10.098a.914.914 0 0 0-1.088-.7c-.277.06-.566.026-.709-.068a.323.323 0 0 1-.133-.185c-.04-.116-.075-.336-.019-.713.178-.569.296-1.43.033-2.26-.142-.452-.4-.9-.825-1.267-.424-.365-.969-.609-1.624-.719a.914.914 0 0 0-.304 1.803c.381.064.602.188.734.301.132.114.22.257.276.433.121.383.065.87-.047 1.201l-.024.07-.012.072c-.214 1.266.114 2.254.947 2.796.718.468 1.577.435 2.095.323a.914.914 0 0 0 .7-1.087ZM10.23 19.24a.914.914 0 0 0-1.087-.7c-.276.06-.566.026-.709-.067a.324.324 0 0 1-.133-.185c-.04-.116-.075-.336-.019-.713.178-.569.296-1.43.033-2.261-.142-.451-.4-.9-.825-1.266-.424-.366-.969-.609-1.624-.72a.914.914 0 1 0-.304 1.804c.381.064.602.187.734.3.132.114.22.258.276.433.121.384.065.87-.047 1.202l-.024.069-.012.072c-.214 1.266.115 2.254.947 2.797.718.468 1.577.435 2.095.322a.914.914 0 0 0 .7-1.087ZM19.85 15.368a2.568 2.568 0 0 0-2.567-2.567h-4.201a2.568 2.568 0 0 0 0 5.135h4.201a2.568 2.568 0 0 0 2.568-2.568Zm-2.567-.739a.74.74 0 1 1 0 1.479h-4.201a.74.74 0 1 1 0-1.479h4.201Z" fill="#6A0910"></path>
</svg>
