
<svg xmlns="http://www.w3.org/2000/svg" width="120" height="120" viewBox="0 0 120 120" fill="none">
  <path d="M59.5 27.96C50.7 26.76 43.8 34.76 41.5 38.96C32.3 38.16 26.7 43.26 25 45.96L19.5 59.46L15 71.96L21.5 84.46L37.5 90.96L49.5 86.96L53 88.96L68 91.96L77.5 86.96L80 72.96L74 63.96C82.8 55.16 79.3 43.66 76.5 38.96C74.5 35.76 68.3 29.16 59.5 27.96Z" fill="#FFCC33"></path>
  <path d="M105.4 66.76C104.6 63.66 103.1 60.66 100.9 58.26C101.2 57.66 101.5 57.06 101.7 56.46C103.5 51.96 103.2 46.96 100.8 42.46C98.4 37.96 94.4 34.36 89.4 32.46C84.2 30.46 78.6 30.36 73.8 32.26C71.8 30.16 69.2 28.56 66.5 27.46C56.3 23.46 45 27.96 40.7 37.36C31.7 36.46 23.2 41.86 19.7 50.76C18.7 53.26 18.2 55.86 18.2 58.56C17 60.06 16 61.76 15.3 63.56C11.2 74.16 17.1 86.36 28.4 90.76H28.6C35.9 93.56 44 92.56 49.9 88.16C51.8 90.26 54.1 91.86 56.7 92.86C58.8 93.66 61 94.06 63.2 94.06C68.2 94.06 73.1 91.96 76.8 88.26C77.7 88.76 78.5 89.16 79.4 89.46C89.4 93.36 100.7 88.36 104.6 78.36C106.1 74.66 106.3 70.66 105.4 66.76ZM80.7 85.46C80.18 85.24 79.69 85 79.21 84.75C79.71 83.88 80.15 82.97 80.5 82.06C83.1 75.36 81.8 67.96 77.1 62.76C76.7 62.36 76.2 62.06 75.6 62.06C75.1 61.96 74.5 62.16 74.1 62.56C73.7 62.96 73.4 63.46 73.4 64.06C73.3 64.66 73.5 65.26 73.9 65.66C77.5 69.66 78.5 75.36 76.5 80.56C76 81.76 75.3 82.96 74.5 84.06C70.7 89.16 64 91.06 58.2 88.86C56.14 88.07 54.41 86.84 52.98 85.22C53.96 84.09 54.81 82.88 55.5 81.56C56 80.46 55.6 79.16 54.6 78.66C54.1 78.46 53.5 78.36 53 78.56C52.4 78.66 52 79.06 51.7 79.56C51 81.06 49.9 82.36 48.7 83.56C48.59 83.67 48.5 83.79 48.41 83.92C43.61 88.28 36.31 89.53 29.8 86.96C25.4 85.16 21.8 81.96 19.8 77.86C17.8 73.76 17.5 69.26 19.1 65.26C19.8 63.66 20.7 62.16 21.8 60.86C21.8 60.85 21.81 60.84 21.82 60.82C21.84 60.8 21.87 60.78 21.9 60.76C24 58.36 26.8 56.66 30 55.76C31.1 55.46 31.8 54.26 31.5 53.16C31.2 52.06 30 51.36 28.9 51.66C26.73 52.26 24.68 53.19 22.84 54.39C23.02 53.7 23.23 53.02 23.5 52.36C26.5 44.86 34 40.46 41.5 41.86C41.77 41.91 42.04 41.91 42.31 41.86C42.97 42.04 43.61 42.25 44.2 42.47C48.1 43.97 51.1 46.97 52.7 50.97C52.9 51.57 53.4 51.97 53.9 52.17C53.9 52.17 54.96 52.37 55.4 52.07C56.5 51.57 57 50.37 56.6 49.27C54.5 44.27 50.7 40.37 45.7 38.47C45.45 38.35 45.19 38.25 44.94 38.16C46.53 35.23 49.15 32.91 52.4 31.57C56.3 29.97 60.7 29.87 64.7 31.47H64.8C67.31 32.44 69.44 33.97 71.2 35.97L71.9 36.61C73.18 38.27 74.15 40.08 74.7 41.98C74.9 42.58 75.4 43.18 76 43.38C76 43.38 76.7 43.43 77.3 43.28C78.4 42.98 79 41.78 78.7 40.68C78.18 38.94 77.4 37.3 76.44 35.75C79.93 34.73 83.89 34.93 87.6 36.38C91.6 37.98 94.8 40.78 96.7 44.28C98.5 47.78 98.8 51.48 97.5 54.88C97.46 55.01 97.4 55.13 97.35 55.25C96.62 54.74 95.86 54.28 95.1 53.88C94.6 53.68 94 53.58 93.5 53.78C93 53.88 92.6 54.28 92.3 54.78C92.1 55.28 92 55.88 92.2 56.38C92.4 56.98 92.8 57.38 93.3 57.68C94.26 58.16 95.15 58.77 95.99 59.46C96.1 59.73 96.27 59.98 96.5 60.18C101.2 64.38 102.7 70.98 100.4 76.88C98.9 80.68 96 83.68 92.3 85.28C88.6 86.88 84.5 86.98 80.7 85.48V85.46Z" fill="#690E14"></path>
  <path d="M61.33 65.5C61.97 64.54 62.5 63.49 62.9 62.36C64.2 58.96 64.3 55.16 63.2 51.66C63.1 51.16 62.7 50.76 62.2 50.46C61.7 50.26 61.1 50.16 60.6 50.36C60.1 50.46 59.7 50.86 59.4 51.36C59.2 51.86 59.1 52.46 59.3 52.96C60.2 55.46 60.1 58.26 59.1 60.76C56.8 66.76 50 69.66 44 67.36C42.94 66.94 41.97 66.36 41.09 65.68C41.03 65.63 40.97 65.58 40.9 65.54C39.15 64.11 37.82 62.19 37.1 59.97C37 59.37 36.6 58.97 36.1 58.67C35.6 58.37 35 58.27 34.5 58.47C33.4 58.87 32.8 60.07 33.1 61.17C33.82 63.45 35.04 65.48 36.62 67.17C35.11 68.81 33.93 70.73 33.1 72.77C32.9 73.27 32.9 73.87 33.1 74.37C33.4 74.87 33.8 75.27 34.3 75.47C34.3 75.47 35.06 75.79 35.8 75.57C36.54 75.35 37 74.87 37.2 74.27C37.89 72.66 38.82 71.17 39.98 69.93C40.59 70.31 41.23 70.67 41.9 70.97L42.5 71.27C44.4 71.97 46.4 72.37 48.3 72.37C52.03 72.37 55.68 71.03 58.5 68.66C60.8 70.6 62.42 73.2 63.1 76.17C63.3 76.87 63.8 77.37 64.4 77.67C64.7 77.77 64.9 77.87 65.2 77.87H65.7C66.2 77.67 66.7 77.37 67 76.87C67.3 76.37 67.4 75.77 67.3 75.27C66.38 71.42 64.32 67.99 61.33 65.51V65.5Z" fill="#690E14"></path>
</svg>
