
<svg xmlns:xlink="http://www.w3.org/1999/xlink" xmlns="http://www.w3.org/2000/svg" viewBox="0 0 120 120" width="120" height="120" fill="none" alt="Cancer Care">
  <path d="M81.38 79.623c-7.173.598-11.067 5.083-13.175 9.568-2.32 4.934 2.077 9.63 7.528 9.63h16.563l13.154-17.43a13.06 13.06 0 0 0 2.602-8.81l-1.818-25.146c-.202-2.796-3.251-4.355-5.579-2.794-3.07 2.059-5.017 5.487-5.017 9.184v13.607c-3.306-2.067-5.785.413-5.785.413L81.38 79.623Z" fill="#FFCC33"></path>
  <path fill-rule="evenodd" clip-rule="evenodd" d="M98.135 49.64v18.766a1.742 1.742 0 1 1-3.483 0V49.412c0-.134.015-.268.046-.399l1.695.4-1.695-.401.002-.005.002-.01.007-.03a10.423 10.423 0 0 1 .11-.4c.077-.257.192-.614.352-1.033.317-.83.828-1.946 1.593-3.025.764-1.076 1.834-2.186 3.29-2.89 1.491-.72 3.271-.955 5.304-.447.043.011.086.024.128.038l-.551 1.652c.551-1.652.552-1.652.553-1.652l.002.001.004.001.009.003.018.007.044.016c.031.012.068.026.11.044a3.68 3.68 0 0 1 1.112.762c.604.604 1.112 1.533 1.129 2.816l2.055 28.764.018.101c.024.137.053.326.08.56.053.463.098 1.11.068 1.862-.06 1.485-.417 3.513-1.718 5.334l-.035.047-14.406 18.79c-.33.43-.84.682-1.383.682h-14.67a1.742 1.742 0 0 1 0-3.483h13.811L105.6 79.434c.753-1.067 1.012-2.335 1.056-3.426a8.692 8.692 0 0 0-.099-1.69 3.998 3.998 0 0 0-.015-.08l-.002-.01.001.004v.001l-.002-.007a1.85 1.85 0 0 1-.035-.245l-2.066-28.929a1.71 1.71 0 0 1-.005-.124c0-.322-.096-.41-.108-.42-1.179-.257-2.063-.086-2.756.248-.766.37-1.419 1.001-1.964 1.77-.543.764-.929 1.595-1.18 2.252a10.862 10.862 0 0 0-.29.862Z" fill="#6A0910"></path>
  <path fill-rule="evenodd" clip-rule="evenodd" d="m91.152 69.457-8.358 11.62a1.742 1.742 0 0 1-1.27.718c-6.35.53-9.8 4.44-11.744 8.574-.846 1.8-.485 3.49.613 4.81 1.138 1.368 3.097 2.338 5.34 2.338h4.122a1.742 1.742 0 0 1 0 3.483h-4.123c-3.209 0-6.174-1.379-8.017-3.593-1.882-2.262-2.56-5.386-1.087-8.52 2.195-4.67 6.314-9.549 13.794-10.479l8.016-11.144c.055-.076.116-.147.182-.214l1.232 1.232a156.365 156.365 0 0 1-1.23-1.233l.001-.002.003-.003.007-.006.016-.016.045-.043a6.07 6.07 0 0 1 .594-.477c.382-.269.938-.6 1.642-.846 1.45-.508 3.438-.613 5.578.703a5.586 5.586 0 0 1 .537.343c.322.232.74.581 1.155 1.066.846.988 1.659 2.515 1.659 4.646 0 .34-.1.673-.287.957L90.8 86.706a1.742 1.742 0 0 1-2.91-1.915l8.461-12.86c-.097-.901-.459-1.504-.795-1.896a3.208 3.208 0 0 0-.55-.51 2.114 2.114 0 0 0-.29-.18c-1.146-.716-2.03-.612-2.635-.401a3.248 3.248 0 0 0-.928.513Z" fill="#6A0910"></path>
  <path d="M37.895 78.753c7.175.598 11.068 5.084 13.176 9.569 2.32 4.933-2.076 9.63-7.527 9.63H26.98L13.83 80.527a13.063 13.063 0 0 1-2.601-8.822l1.816-24.824c.2-2.742 3.217-4.313 5.574-2.898a10.342 10.342 0 0 1 5.019 8.861v13.718c3.306-2.066 5.786.413 5.786.413l8.471 11.778Z" fill="#FFCC33"></path>
  <path fill-rule="evenodd" clip-rule="evenodd" d="M22.012 49.64v18.766a1.742 1.742 0 0 0 3.483 0V49.412c0-.134-.016-.268-.046-.399l-1.696.4c1.696-.4 1.695-.4 1.695-.401l-.001-.005-.002-.01-.008-.03a10.423 10.423 0 0 0-.11-.4 14.361 14.361 0 0 0-.352-1.033c-.317-.83-.827-1.946-1.593-3.025-.764-1.076-1.833-2.186-3.289-2.89-1.492-.72-3.271-.955-5.304-.447-.043.011-.086.024-.129.038l.551 1.652a141.34 141.34 0 0 0-.553-1.652l-.002.001-.004.001-.008.003-.019.007a1.69 1.69 0 0 0-.153.06 3.679 3.679 0 0 0-1.112.762c-.604.604-1.112 1.533-1.13 2.816l-2.055 28.764-.018.101a9.908 9.908 0 0 0-.08.56c-.052.463-.097 1.11-.067 1.862.06 1.485.417 3.513 1.718 5.334l.035.047 14.406 18.79c.33.43.84.682 1.382.682h14.67a1.742 1.742 0 0 0 0-3.483h-13.81L14.545 79.434c-.753-1.067-1.012-2.335-1.056-3.426a8.73 8.73 0 0 1 .049-1.327 6.49 6.49 0 0 1 .066-.443l.002-.01-.001.004v.001l.001-.007c.018-.08.03-.163.035-.245l2.067-28.929a1.71 1.71 0 0 0 .004-.124c0-.322.097-.41.109-.42 1.178-.257 2.063-.086 2.756.248.765.37 1.418 1.001 1.963 1.77.544.764.93 1.595 1.18 2.252a10.862 10.862 0 0 1 .29.862Z" fill="#6A0910"></path>
  <path fill-rule="evenodd" clip-rule="evenodd" d="m28.995 69.457 8.357 11.62c.298.413.762.676 1.27.718 6.35.53 9.801 4.44 11.744 8.574.846 1.8.486 3.49-.612 4.81-1.139 1.368-3.097 2.338-5.34 2.338h-4.123a1.742 1.742 0 0 0 0 3.483h4.123c3.21 0 6.175-1.379 8.017-3.593 1.883-2.262 2.56-5.386 1.088-8.52-2.196-4.67-6.315-9.549-13.795-10.479l-8.015-11.144a1.743 1.743 0 0 0-.183-.214l-1.231 1.232a160.395 160.395 0 0 0 1.23-1.233l-.002-.002-.003-.003-.006-.006-.017-.016a3.348 3.348 0 0 0-.18-.164 6.73 6.73 0 0 0-2.1-1.201c-1.45-.508-3.438-.614-5.578.702a5.586 5.586 0 0 0-.537.343c-.322.232-.74.581-1.155 1.066-.847.988-1.66 2.515-1.66 4.646 0 .34.1.673.287.957l8.773 13.335a1.742 1.742 0 1 0 2.91-1.915l-8.46-12.86c.097-.901.458-1.504.795-1.896.204-.239.407-.406.55-.51a2.114 2.114 0 0 1 .29-.18c1.146-.716 2.03-.612 2.634-.401a3.248 3.248 0 0 1 .929.513ZM51.534 28.435l-2.357 3.057-.029.034c-1.034 1.208-1.446 2.168-1.574 3.02-.133.877.002 1.837.4 3.115.143.459.52 1.187 1.114 2.11.571.89 1.27 1.85 1.956 2.745.461.6.91 1.163 1.305 1.646l5.49-6.707c-3.78-3.43-5.566-6.506-6.305-9.02Zm3.202-4.243.02.008v-.002l.003-.006.005-.01.006-.012.002-.006v.002a3.13 3.13 0 0 0-.141.558c-.074.456-.114 1.195.105 2.183.432 1.959 1.928 5.097 6.635 9l1.332 1.105L52.41 49.586l-1.355-1.549 1.311-1.147-1.31 1.147-.006-.006-.012-.014-.047-.054a53.677 53.677 0 0 1-.787-.927 77.76 77.76 0 0 1-1.922-2.398 44.928 44.928 0 0 1-2.125-2.984c-.623-.97-1.22-2.027-1.509-2.958-.467-1.502-.764-3.045-.519-4.67.248-1.639 1.017-3.17 2.343-4.73l5.339-6.923 2.925 1.819Z" fill="#6A0910"></path>
  <path fill-rule="evenodd" clip-rule="evenodd" d="M54.606 24.646c-.236.982-.014 2.21.478 3.465.168.429.354.825.531 1.167 2.787-1.062 5.177-1.03 6.983-.635.786.172 1.449.41 1.975.643.585-.905.901-2.012 1.048-3.1.08-.594.103-1.14.103-1.578-3.365-1.32-6.2-1.272-8.217-.89-1.112.21-1.986.523-2.57.777a9.545 9.545 0 0 0-.33.151Zm12.803-1.213 1.73-.212-.12-.966-.884-.406c-4.522-2.07-8.449-2.089-11.275-1.555a15.634 15.634 0 0 0-3.312 1.006 11.775 11.775 0 0 0-1.18.594 6.177 6.177 0 0 0-.08.047l-.025.017-.01.006-.004.002-.001.001c-.001 0-.002.001.94 1.466l-.942-1.465-.431.278-.212.467c-1.08 2.379-.428 4.971.239 6.67a16.535 16.535 0 0 0 1.583 3.035l.037.053.011.017.004.006.003.003 1.424-1.003.781 1.557c2.678-1.345 4.785-1.308 6.169-1.005.707.154 1.25.384 1.605.566a4.444 4.444 0 0 1 .453.267l.002.002 1.14.883 1.081-.977c1.99-1.796 2.69-4.297 2.938-6.136a15.46 15.46 0 0 0 .095-3.121 9.413 9.413 0 0 0-.026-.276l-.002-.02-.001-.008v-.003c0-.002 0-.002-1.73.21Z" fill="#6A0910"></path>
  <path fill-rule="evenodd" clip-rule="evenodd" d="m65.679 23.614 3.17-1.165 6.086 8.906a4.833 4.833 0 0 1 .452.644c.266.451.554 1.091.719 1.92.335 1.695.116 3.968-1.461 6.776l-.074.132-27.693 33.885a2.613 2.613 0 0 1-4.172-.168l-5.888-8.517a2.613 2.613 0 0 1 .13-3.143l26.75-32.587.076-.07.001-.002a4.544 4.544 0 0 0 .289-.332c.21-.263.499-.676.778-1.232.552-1.102 1.075-2.785.837-5.047Zm3.008 4.772a11.67 11.67 0 0 1-.731 1.836c-.401.8-.827 1.413-1.162 1.836a8.073 8.073 0 0 1-.537.611l-26.2 31.918 4.857 7.025L71.679 38.86c1.163-2.125 1.157-3.518 1.01-4.265a2.651 2.651 0 0 0-.303-.83 1.354 1.354 0 0 0-.098-.147l-.078-.08-3.522-5.153Z" fill="#6A0910"></path>
  <path fill-rule="evenodd" clip-rule="evenodd" d="m67.54 43.904 15.003 19.39c.703.908.73 2.168.068 3.106l-6.023 8.525a2.613 2.613 0 0 1-4.17.13l-15.03-18.706L67.54 43.904Zm-5.67 12.462 12.54 15.606 4.984-7.056-11.927-15.412-5.597 6.862Z" fill="#6A0910"></path>
</svg>
