
<svg xmlns="http://www.w3.org/2000/svg" id="Layer_1" version="1.1" viewBox="0 0 120 120">
  <defs>
    <style>
      .st0 {
        fill: #6a0910;
        fill-rule: evenodd;
      }

      .st1 {
        fill: #ffb71e;
      }
    </style>
  </defs>
  <path class="st0" d="M80,28.6c.4.9,0,2-1,2.4,0,0,0,0,0,0-7.9,3.1-24.5,10.9-34,19.2-.7.6-1.5,1.2-2.2,1.9-.3.3-.6.5-.9.8-1,.8-2,1.7-2.8,2.6-2.1,2.2-3.6,5.4-2.4,9.1,0,0,0,0,0,.1,1,4.2,3.1,14.1,3.7,19.9l1.3,10.5c.1,1-.6,1.9-1.6,2-1,0-1.9-.6-2-1.6l-1.3-10.5s0,0,0,0c-.5-5.4-2.6-15.1-3.6-19.3-1.7-5.4.6-9.9,3.2-12.7l1.3,1.2-1.3-1.2c1-1.1,2.1-2,3.2-2.9.3-.3.7-.6,1-.8.7-.6,1.4-1.1,2.1-1.7,9.9-8.7,27-16.7,35-19.8.9-.4,2,0,2.4,1,0,0,0,0,0,0ZM85.6,54.6c.4.9,0,2-.9,2.4,0,0,0,0,0,0l-.9.4c-4.3,1.9-13.2,5.8-23.2,7.9h-.5c-.8.3-1.5.4-2.1.7-.3.1-.4.2-.5.3,0,0,0,0,0,0,0,0,0,0,0,0,0,0,0,0,0,0,0,0,0,.2.2.4.8,1,1.5,2.6,1.9,4.7.4,2.1.5,4.9.3,8.4,0,0,0,0,0,0l-1.6,15.6c-.1,1-1,1.8-2,1.6-1-.1-1.8-1-1.6-2h0l1.6-15.5c.3-3.2,0-5.6-.2-7.4-.3-1.8-.8-2.7-1.1-3-.7-.9-1.1-1.9-1.1-2.9.1-2,1.6-3,2.7-3.5,1-.4,2.1-.6,2.9-.8h.4c9.6-2.1,18.2-5.8,22.5-7.8l.8-.4c.9-.4,2,0,2.4.9,0,0,0,0,0,0Z"></path>
  <path class="st1" d="M49.3,52.8l31.3-19.1,2.3,11.2c-5.2.7-22.1,9.3-29.9,13.5,0,2.6-1.2,4.2-1.9,4.7-1.5,1.5-3.7-.3-4.7-1.4-5.2,1.1-5.6-2-5.1-3.7,1.1-3.7,5.8-5,7.9-5.1h0Z"></path>
  <path class="st0" d="M81,33.2c-.4-.6-1.3-.8-1.9-.4-3.9,2.5-13.6,9-18.7,12.1-5,3-9.6,5.7-12.3,6.8-1.5.2-3.6.8-5.2,2-1.8,1.3-3.3,3.3-2.9,6.2,0,.7.4,1.6,1.1,2.4.8.8,2,1.3,3.5.9.3,0,.7-.1,1.2,0,.4,0,.7.2.8.4,0,.1.2.3.3.4.8.6,2,1,3.2.8,1.3-.2,2.5-.8,3.3-2.3.5-.9.5-1.9.6-2.6,0,0,0-.2,0-.2h0c0-.1,0-.2,0-.2,0,0,0-.2,0-.2,0,0,.2-.4.9-.8,0,0,0,0,0,0,2-1.2,7-3.7,12.3-6.2,5.3-2.4,12.9-5.1,15.4-5.9.7-.2,1.1-1,.9-1.7s-1-1.1-1.7-.9c0,0,0,0,0,0-2.6.9-10.4,3.6-15.6,6.1-5.2,2.4-10.4,5-12.6,6.3-1.1.6-1.8,1.3-2.1,2.1-.2.4-.2.7-.3,1,0,.1,0,.2,0,.3h0c0,0,0,.1,0,.2,0,0,0,.1,0,.2,0,.7,0,1.1-.2,1.4-.3.6-.8.8-1.2.9-.4,0-.7,0-1.1-.2-.7-.9-1.6-1.3-2.5-1.4-.8-.1-1.6-.1-2.3,0h0c-.3,0-.5,0-.6,0-.1,0-.2,0-.3-.2-.2-.2-.3-.6-.4-.8,0,0,0,0,0,0h0c-.2-1.5.5-2.6,1.8-3.5,1.3-.9,3-1.4,4.1-1.5.1,0,.3,0,.4-.1,2.9-1.2,7.8-4,12.8-7.1,5.1-3.1,14.8-9.6,18.7-12.2.6-.4.8-1.3.4-1.9h0Z"></path>
  <path class="st1" d="M43.7,75.2l1.9,21,6.1-.5-1.9-21c1.5-1.5,1.9-3.7,1.9-4.7-1.1-4.1-4.2-3.3-5.6-2.3-2.6-2.2-4.8-.3-5.6.9-1.5,3,1.6,5.6,3.3,6.5h0Z"></path>
  <path class="st0" d="M43.2,68c.5,0,1,0,1.5.2.9.3,1.9.4,2.8.1,1.1-.3,1.9,0,2.1.3.8.8.9,1.5.9,2.1,0,.7-.5,1.3-.9,1.9-.6.7-1.1,1.6-1,2.7l1.5,19.6c0,.8.7,1.3,1.5,1.3.8,0,1.3-.7,1.3-1.5l-1.5-19.6c0-.1,0-.4.3-.6.7-.8,1.4-2,1.6-3.4.2-1.5-.3-3-1.7-4.4,0,0,0,0,0,0-.8-.7-2.6-1.5-4.7-.9-.4.1-.8,0-1.2,0-.8-.3-1.9-.5-3-.3-1.2.2-2.3.9-3.1,2.2-.1.2-.2.4-.3.6-.3.9-.6,2.2-.3,3.5.3,1.4,1.2,2.7,2.9,3.5.2,0,.4.2.5.4.1.1.1.2.2.3l1.5,19.3c0,.8.8,1.3,1.5,1.2.7,0,1.3-.7,1.2-1.5l-1.5-19.3c-.1-1.6-1.3-2.6-2.4-3-.8-.3-1.1-.9-1.3-1.5-.1-.7,0-1.4.2-2,.4-.7.9-.9,1.4-1h0Z"></path>
</svg>
