
<svg xmlns:xlink="http://www.w3.org/1999/xlink" xmlns="http://www.w3.org/2000/svg" viewBox="0 0 120 120" width="120" height="120" fill="none" alt="Spine">
  <path d="m56.15 51.282.29 7.362c6.973-6.235 17.616-5.043 22.065-3.667l-.997-13.085c-11.616-5.392-18.935-.271-21.142 2.963-5.767.357-11.82-1.501-12.024 4.558-.15 4.467 7.756 2.896 11.807 1.869Z" fill="#FFCC33"></path>
  <path fill-rule="evenodd" clip-rule="evenodd" d="M75.605 43.24c-10.058-4.183-15.972.375-17.587 2.743a2 2 0 0 1-1.529.869c-1.365.084-2.743.053-3.971.025l-.478-.011c-1.4-.03-2.54-.032-3.477.108-.93.14-1.4.384-1.656.638-.22.22-.526.691-.566 1.869-.009.258.042.356.053.376.011.02.046.077.18.157.334.198 1.013.378 2.126.394 2.177.033 4.942-.553 6.957-1.065a2 2 0 0 1 2.49 1.86l.145 3.656c3.207-1.839 6.734-2.651 9.976-2.897a31.932 31.932 0 0 1 8.035.433l-.698-9.156Zm-20.258-.343c3.26-3.873 11.321-8.24 23.003-2.819a2 2 0 0 1 1.152 1.662l.997 13.085a2 2 0 0 1-2.584 2.063c-2.005-.62-5.526-1.226-9.345-.937-3.814.289-7.743 1.454-10.796 4.184a2 2 0 0 1-3.332-1.411l-.196-4.951c-1.753.358-3.781.662-5.606.635-1.352-.02-2.874-.222-4.107-.954a4.416 4.416 0 0 1-1.647-1.675c-.408-.745-.572-1.575-.543-2.433.063-1.852.59-3.421 1.742-4.568 1.117-1.113 2.56-1.562 3.888-1.76 1.322-.197 2.79-.18 4.152-.151l.487.01c.934.022 1.84.042 2.735.02ZM60.238 13.719c4.677-.852 9.51-.27 12.57.523a2 2 0 0 1 1.437 1.45l3.488 13.904a2 2 0 0 1-2.862 2.261c-3.56-1.848-7.435-1.495-11.032-.11-3.61 1.39-6.703 3.74-8.404 5.446a2 2 0 0 1-3.346-.889l-1.06-3.91c-.47.261-.968.52-1.478.763-1.456.692-3.352 1.42-5.022 1.364-3.209-.108-4.97-2.41-5.574-3.767-.951-1.517-1.195-3.17-.44-4.714.691-1.409 2.035-2.32 3.264-2.918 2.118-1.032 4.867-1.595 7.049-1.853 2.528-4.636 7.032-6.754 11.41-7.55Zm.716 3.935c-3.948.718-7.337 2.565-8.997 6.307a2 2 0 0 1-1.673 1.183c-2.099.164-4.909.676-6.754 1.574-.947.462-1.319.871-1.422 1.082l-.002.004c-.021.034-.151.245.289.904.083.125.153.259.206.4.054.141.261.52.642.854.349.305.804.54 1.421.561.63.021 1.767-.312 3.17-.979a24.923 24.923 0 0 0 3.284-1.898 2 2 0 0 1 3.072 1.12l.924 3.407c1.963-1.519 4.476-3.077 7.288-4.16 3.163-1.218 6.835-1.878 10.541-1.071l-2.28-9.09c-2.63-.535-6.267-.824-9.71-.198ZM66.268 64.969c-3.968.37-7.614 1.745-9.703 2.87a2 2 0 0 1-1.561.142c-1.462-.47-3.655-.872-5.494-.651-.906.108-1.592.352-2.06.687-.422.3-.756.734-.913 1.471-.137.647.024.877.172 1.032.258.271.819.59 1.816.82 1.971.456 4.644.339 6.545.05a2 2 0 0 1 2.3 2.044l-.107 3.162c3.444-1.316 7.212-1.526 10.616-1.24 3.158.264 6.142.967 8.51 1.738l.332-9.823c-3.08-2.121-6.804-2.642-10.453-2.302Zm-.372-3.983c4.584-.427 9.813.27 14.118 3.756a2 2 0 0 1 .74 1.622l-.46 13.645a2 2 0 0 1-2.796 1.767c-2.16-.938-5.907-2.095-9.954-2.435-4.072-.342-8.167.166-11.289 2.235a2 2 0 0 1-3.104-1.734l.144-4.248c-1.805.111-3.867.06-5.67-.356-1.328-.306-2.774-.869-3.812-1.959-1.148-1.205-1.572-2.815-1.189-4.62.364-1.715 1.264-3.014 2.502-3.898 1.19-.85 2.59-1.245 3.908-1.403 2.239-.268 4.622.102 6.38.575 2.531-1.241 6.337-2.56 10.482-2.947ZM66.791 88.168c-4.012-.34-8.172.422-10.74 1.228a2 2 0 0 1-1.123.022c-1.697-.46-4.277-.905-6.49-.793-1.11.056-1.98.246-2.575.533-.546.264-.767.556-.863.885-.062.21-.064.366.216.678.36.403 1.062.866 2.137 1.312 2.119.879 4.939 1.39 6.91 1.573a2 2 0 0 1 1.812 2.059l-.098 2.916c7.603-1.436 14.176.996 18.183 3.475l1.625-9.653c-1.957-2.673-5.231-3.916-8.994-4.235Zm.338-3.986c4.626.393 9.622 2.087 12.465 6.724a2 2 0 0 1 .267 1.378l-2.296 13.639a2 2 0 0 1-3.32 1.147c-2.682-2.444-10.555-6.809-19.774-4.005a2 2 0 0 1-2.58-1.981l.125-3.728c-1.946-.298-4.243-.818-6.195-1.628-1.3-.54-2.642-1.285-3.587-2.34-1.025-1.146-1.592-2.698-1.073-4.47.485-1.654 1.647-2.725 2.96-3.36 1.266-.613 2.732-.858 4.115-.928 2.517-.127 5.24.306 7.174.782 2.954-.857 7.356-1.6 11.719-1.23Z" fill="#6A0910"></path>
  <path fill-rule="evenodd" clip-rule="evenodd" d="M75.309 43.226c-10.058-4.182-15.971.376-17.587 2.743a2 2 0 0 1-2.064.83c-3.222-.678-5.757-.942-7.437-.517-.77.194-1.234.504-1.533.888-.307.394-.602 1.074-.643 2.297-.009.258.042.356.053.376.011.02.046.078.18.158.334.198 1.013.377 2.126.394 2.177.033 4.942-.554 6.957-1.065a2 2 0 0 1 2.49 1.86l.145 3.656c3.207-1.84 6.734-2.652 9.976-2.897a31.927 31.927 0 0 1 8.035.432l-.698-9.155Zm-20.047-.586c3.387-3.808 11.354-7.884 22.792-2.575a2 2 0 0 1 1.152 1.662l.998 13.085a2 2 0 0 1-2.585 2.062c-2.005-.62-5.526-1.226-9.345-.937-3.814.29-7.743 1.454-10.796 4.185a2 2 0 0 1-3.332-1.412l-.196-4.95c-1.753.358-3.781.662-5.606.634-1.352-.02-2.874-.221-4.107-.953a4.416 4.416 0 0 1-1.647-1.675c-.408-.745-.572-1.575-.543-2.434.061-1.807.52-3.38 1.485-4.62.973-1.249 2.3-1.952 3.709-2.308 2.338-.591 5.208-.295 8.02.236ZM60.046 13.47c4.654-.729 9.449-.022 12.464.76a2 2 0 0 1 1.438 1.45l3.488 13.904a2 2 0 0 1-2.862 2.261c-3.56-1.848-7.436-1.495-11.032-.11-3.61 1.39-6.703 3.74-8.404 5.446a2 2 0 0 1-3.346-.889l-1.06-3.909c-.47.26-.968.52-1.478.762-1.456.692-3.352 1.42-5.021 1.364-3.395-.114-5.17-2.684-5.668-3.992-.674-1.773-.672-3.475.081-4.969.717-1.421 1.97-2.364 3.218-2.997 2.067-1.05 4.679-1.528 6.784-1.758 2.536-4.636 7.036-6.64 11.398-7.323Zm.618 3.952c-3.907.611-7.241 2.35-8.892 6.07a2 2 0 0 1-1.672 1.183c-2.157.168-4.712.573-6.425 1.443-.84.426-1.27.86-1.457 1.232-.15.298-.273.803.086 1.746.054.142.261.52.642.854.349.305.805.54 1.421.561.63.022 1.767-.312 3.17-.979a24.918 24.918 0 0 0 3.284-1.898 2 2 0 0 1 3.072 1.12l.923 3.407c1.963-1.519 4.477-3.077 7.289-4.16 3.164-1.218 6.835-1.878 10.541-1.071l-2.282-9.097c-2.656-.566-6.281-.947-9.7-.411Z" fill="#6A0910"></path>
  <path d="m55.074 73.358-.22 6.542c7.306-4.844 18.474-1.997 23.144.032l.46-13.645c-7.522-6.092-18.56-2.684-23.138-.219-3.245-1.045-9.996-1.909-11.036 2.996-1.04 4.905 6.76 4.907 10.79 4.294Z" fill="#FFCC33"></path>
  <path fill-rule="evenodd" clip-rule="evenodd" d="M65.97 64.96c-3.968.37-7.614 1.744-9.703 2.868a2 2 0 0 1-1.561.143c-1.461-.47-3.655-.871-5.494-.651-.906.109-1.592.352-2.06.687-.422.301-.756.734-.913 1.471-.137.648.024.877.173 1.033.257.27.818.59 1.815.82 1.972.456 4.644.338 6.546.049a2 2 0 0 1 2.299 2.045l-.107 3.162c3.444-1.317 7.212-1.527 10.616-1.242 3.159.266 6.143.968 8.51 1.74l.332-9.824C73.344 65.14 69.62 64.62 65.97 64.96Zm-.371-3.983c4.583-.428 9.812.269 14.117 3.755a2 2 0 0 1 .74 1.622l-.46 13.645a2 2 0 0 1-2.796 1.767c-2.16-.938-5.907-2.095-9.954-2.435-4.072-.341-8.167.166-11.289 2.236a2 2 0 0 1-3.104-1.735l.144-4.247c-1.804.11-3.866.06-5.67-.357-1.328-.306-2.774-.869-3.812-1.959-1.148-1.205-1.571-2.815-1.188-4.62.363-1.715 1.263-3.014 2.5-3.898 1.192-.85 2.592-1.245 3.909-1.403 2.239-.268 4.622.102 6.38.575 2.531-1.241 6.337-2.56 10.483-2.946ZM66.494 88.153c-4.012-.34-8.172.422-10.74 1.228a2 2 0 0 1-1.123.022c-1.718-.466-4.099-.89-6.1-.77-2.151.127-2.89.774-3.087 1.442-.086.295-.051.478.168.75.296.368.894.807 1.86 1.236 1.912.85 4.526 1.347 6.493 1.53a2 2 0 0 1 1.814 2.059l-.099 2.916c7.604-1.436 14.176.996 18.183 3.475l1.625-9.653c-1.957-2.673-5.23-3.916-8.994-4.235Zm.338-3.986c4.627.393 9.622 2.087 12.465 6.724a2 2 0 0 1 .267 1.378l-2.296 13.639a2 2 0 0 1-3.319 1.147c-2.683-2.444-10.556-6.809-19.775-4.005a2 2 0 0 1-2.58-1.981l.125-3.731c-1.885-.296-4.048-.811-5.87-1.621-1.224-.544-2.484-1.303-3.354-2.385-.946-1.176-1.384-2.695-.89-4.382.967-3.296 4.223-4.164 6.687-4.31 2.368-.142 4.933.287 6.823.756 2.954-.856 7.355-1.598 11.717-1.228Z" fill="#6A0910"></path>
</svg>
