
<svg xmlns:xlink="http://www.w3.org/1999/xlink" xmlns="http://www.w3.org/2000/svg" viewBox="0 0 120 120" width="120" height="120" fill="none" alt="Womens Health">
  <path d="M71.817 27.176c-9.787-4.595-19.005-2.7-25.05.222-3.425 1.654-6.04 4.743-6.747 8.479-1.481 7.816 1.642 16.084 5.508 22.522C49.11 64.367 52.01 70.94 52.01 77.9v1.309c0 1.19.135 2.375.403 3.534l1.743 7.559a5.978 5.978 0 0 0 11.655-.022l1.716-7.568c.258-1.139.389-2.303.389-3.47v-8.078c0-2.644 1.002-5.172 2.61-7.272 8.3-10.839 9.576-20.756 8.635-27.352-.595-4.173-3.53-7.573-7.345-9.364Z" fill="#FFCC33"></path>
  <path fill-rule="evenodd" clip-rule="evenodd" d="M107.196 33.203c2.851 2.557 4.804 6.121 4.804 9.981v1.95c0 6.495-5.019 11.74-11.424 13.16l-.784-3.53c5.071-1.125 8.592-5.139 8.592-9.63v-1.95c0-2.618-1.341-5.26-3.603-7.288-2.255-2.023-5.301-3.315-8.458-3.315v-3.616c4.126 0 8.014 1.675 10.873 4.238Z" fill="#6A0910"></path>
  <path fill-rule="evenodd" clip-rule="evenodd" d="M43.828 29.029c3.592-3.71 9.42-6.006 15.83-6.006 6.409 0 12.237 2.29 15.83 6.006h21.495v3.616H73.865l-.54-.626C70.623 28.89 65.6 26.64 59.657 26.64c-5.942 0-10.966 2.257-13.668 5.38l-.54.625H21.971c-5.727 0-10.356 4.606-10.356 10.217v1.994c0 4.768 3.343 8.813 7.873 9.919l-.858 3.513C12.55 56.803 8 51.36 8 44.857v-1.995c0-7.648 6.287-13.833 13.972-13.833h21.855Z" fill="#6A0910"></path>
  <path d="M33.583 57.194c0 4.012-3.844 7.265-8.586 7.265-4.741 0-8.585-3.253-8.585-7.265s3.844-7.264 8.585-7.264c4.742 0 8.586 3.252 8.586 7.264Z" fill="#FFFFFF"></path>
  <path fill-rule="evenodd" clip-rule="evenodd" d="M24.997 60.842c3.334 0 4.97-2.176 4.97-3.648s-1.636-3.648-4.97-3.648c-3.334 0-4.968 2.176-4.968 3.648s1.634 3.648 4.968 3.648Zm0 3.617c4.742 0 8.586-3.253 8.586-7.265s-3.844-7.264-8.586-7.264c-4.741 0-8.585 3.252-8.585 7.264 0 4.012 3.844 7.265 8.585 7.265Z" fill="#6A0910"></path>
  <path d="M102.266 57.194c0 4.012-3.843 7.265-8.585 7.265-4.742 0-8.585-3.253-8.585-7.265s3.843-7.264 8.585-7.264c4.742 0 8.585 3.252 8.585 7.264Z" fill="#FFFFFF"></path>
  <path fill-rule="evenodd" clip-rule="evenodd" d="M93.681 60.842c3.334 0 4.969-2.176 4.969-3.648s-1.635-3.648-4.969-3.648c-3.334 0-4.969 2.176-4.969 3.648s1.635 3.648 4.969 3.648Zm0 3.617c4.742 0 8.585-3.253 8.585-7.265s-3.843-7.264-8.585-7.264c-4.742 0-8.585 3.252-8.585 7.264 0 4.012 3.843 7.265 8.585 7.265ZM45.196 29.943a1.808 1.808 0 0 1 .475 2.513c-2.635 3.864-5.701 16.687 6.956 34.693 1.213 1.726 1.944 3.805 1.944 5.984v9.29l2.662 12.128a1.808 1.808 0 1 1-3.533.775l-2.746-12.51v-9.683c0-1.366-.46-2.729-1.286-3.904-13.256-18.858-10.703-33.357-6.985-38.81a1.808 1.808 0 0 1 2.513-.476ZM74.199 29.943a1.808 1.808 0 0 0-.475 2.513c2.646 3.881 5.728 16.805-7.13 34.939-1.11 1.566-1.77 3.455-1.77 5.435v9.041c0 .373-.038.745-.115 1.11L62.286 94.57a1.808 1.808 0 1 0 3.54.74l2.423-11.587a9.04 9.04 0 0 0 .192-1.851V72.83c0-1.171.391-2.339 1.104-3.343 13.46-18.985 10.902-33.59 7.167-39.068a1.808 1.808 0 0 0-2.513-.476Z" fill="#6A0910"></path>
</svg>
