
<svg xmlns:xlink="http://www.w3.org/1999/xlink" xmlns="http://www.w3.org/2000/svg" viewBox="0 0 121 120" width="121" height="120" fill="none" alt="New Primary Car DFD">
  <path d="M65.028 57H54.855C40.305 57 28.4 68.934 28.4 83.524v14.653c0 2.196 1.79 3.991 3.98 3.991h55.123c2.187 0 3.977-1.795 3.977-3.991V83.524C91.48 68.934 79.573 57 65.023 57h.004Z" fill="#FFB71E"></path>
  <path fill-rule="evenodd" clip-rule="evenodd" d="M26.4 81.684c0-15.69 12.796-28.524 28.455-28.524h10.173c15.657.002 28.451 12.836 28.451 28.524v14.653c0 3.295-2.678 5.991-5.976 5.991H32.38c-3.3 0-5.98-2.695-5.98-5.99V81.683ZM65.024 57.16H54.855c-13.44 0-24.455 11.034-24.455 24.524v14.653c0 1.097.9 1.991 1.98 1.991h55.123a1.995 1.995 0 0 0 1.977-1.99V81.683c0-13.488-11.014-24.522-24.452-24.524h-.004ZM41.975 33.36c0-10.142 8.221-18.36 18.358-18.36 10.138 0 18.35 8.23 18.35 18.36 0 10.13-8.214 18.348-18.35 18.348-10.139 0-18.358-8.206-18.358-18.349ZM60.333 19c-7.928 0-14.358 6.428-14.358 14.36 0 7.93 6.425 14.348 14.358 14.348 7.927 0 14.35-6.427 14.35-14.349 0-7.923-6.425-14.359-14.35-14.359Z" fill="#6A0910"></path>
  <path fill-rule="evenodd" clip-rule="evenodd" d="M49.9 70.148c1.586 1.117 2.932 2.793 3.531 4.795l.008.026 3.063 11.373.017.119c.274 1.901.182 3.907-.872 5.575-1.1 1.74-2.965 2.683-5.286 3.007a2 2 0 0 1-.553-3.961c1.575-.22 2.182-.746 2.457-1.182.313-.496.499-1.344.31-2.754l-2.983-11.08c-.313-1.02-1.047-1.98-1.995-2.647-.969-.682-1.968-.93-2.715-.825l-3.775.526c-.766.108-1.647.61-2.367 1.5-.705.872-1.144 1.985-1.159 3.106l.312 11.409c.373 2.25 2.055 3.293 3.795 3.05a2 2 0 1 1 .553 3.961c-4.04.565-7.684-2.136-8.323-6.544l-.017-.115-.32-11.722v-.034c.014-2.128.826-4.113 2.048-5.625 1.213-1.5 2.945-2.67 4.923-2.947l3.775-.527h.001c1.996-.28 3.998.408 5.572 1.516Z" fill="#6A0910"></path>
  <path fill-rule="evenodd" clip-rule="evenodd" d="M45.048 68.875c-.016.618-.034 1.293-.068 2.05l-3.996-.177c.025-.56.04-1.118.053-1.674.05-1.915.098-3.807.577-5.714.651-2.592 2.05-5.193 4.905-8.585l3.06 2.575c-2.618 3.112-3.631 5.177-4.085 6.984-.362 1.442-.398 2.751-.446 4.54ZM78.893 79.395c-1.906-.257-3.684 1.095-3.942 3.035-.258 1.945 1.107 3.724 3.017 3.981 1.906.257 3.684-1.094 3.942-3.035.258-1.945-1.107-3.724-3.017-3.981Zm.534-3.965c-4.115-.554-7.895 2.357-8.441 6.473-.546 4.111 2.33 7.918 6.448 8.473m1.993-14.946c4.117.555 6.994 4.362 6.448 8.473-.546 4.116-4.326 7.027-8.44 6.473" fill="#6A0910"></path>
  <path fill-rule="evenodd" clip-rule="evenodd" d="M76.987 67.728c-.663-3.172-2.149-6.551-5.15-10.2l3.089-2.54c3.386 4.115 5.174 8.078 5.976 11.923.798 3.822.6 7.42.163 10.75l-3.966-.52c.41-3.127.555-6.219-.112-9.413Z" fill="#6A0910"></path>
</svg>
