
<svg xmlns="http://www.w3.org/2000/svg" width="58" height="66" fill="none">
  <path d="M35 41h12a2 2 0 0 1 2 2v2a2 2 0 0 1-2 2H35v-6Z" fill="#7A0019"></path>
  <path d="M14.869 46.552C5.919 31.5 15.624 18.729 21.709 15L29 23.162c-8.008 5.288-5.3 14.746-2.944 18.813L14.87 46.552Z" fill="#152E64"></path>
  <rect width="20.701" height="13.903" rx="2" transform="matrix(.62503 .7806 -.7848 .61976 26.854 5.368)" fill="#152E64"></rect>
  <rect width="8.495" height="9.729" rx="2" transform="matrix(.62503 .7806 -.7848 .61976 19.969 0)" fill="#FFB71E"></rect>
  <rect width="4.905" height="7.901" rx="1" transform="matrix(.62503 .7806 -.7848 .61976 37.688 23.195)" fill="#FFB71E"></rect>
  <mask id="a" maskUnits="userSpaceOnUse" x="0" y="36.275" width="58" height="30" fill="#000">
    <path fill="#fff" d="M0 36.275h58v30H0z"></path>
    <path fill-rule="evenodd" clip-rule="evenodd" d="M18.292 40.275a7 7 0 0 0-7 7v5.414H6a2 2 0 0 0-2 2V60a2 2 0 0 0 2 2h46a2 2 0 0 0 2-2v-5.31a2 2 0 0 0-2-2H31.084v-5.414a7 7 0 0 0-7-7h-5.792Z"></path>
  </mask>
  <path fill-rule="evenodd" clip-rule="evenodd" d="M18.292 40.275a7 7 0 0 0-7 7v5.414H6a2 2 0 0 0-2 2V60a2 2 0 0 0 2 2h46a2 2 0 0 0 2-2v-5.31a2 2 0 0 0-2-2H31.084v-5.414a7 7 0 0 0-7-7h-5.792Z" fill="#152E63"></path>
  <path d="M11.292 52.69v4h4v-4h-4Zm19.792 0h-4v4h4v-4Zm-15.792-5.415a3 3 0 0 1 3-3v-8c-6.075 0-11 4.925-11 11h8Zm0 5.414v-5.414h-8v5.414h8ZM6 56.69h5.292v-8H6v8Zm2-2a2 2 0 0 1-2 2v-8a6 6 0 0 0-6 6h8ZM8 60v-5.31H0V60h8Zm-2-2a2 2 0 0 1 2 2H0a6 6 0 0 0 6 6v-8Zm46 0H6v8h46v-8Zm-2 2a2 2 0 0 1 2-2v8a6 6 0 0 0 6-6h-8Zm0-5.31V60h8v-5.31h-8Zm2 2a2 2 0 0 1-2-2h8a6 6 0 0 0-6-6v8Zm-20.916 0H52v-8H31.084v8Zm-4-9.414v5.414h8v-5.414h-8Zm-3-3a3 3 0 0 1 3 3h8c0-6.075-4.925-11-11-11v8Zm-5.792 0h5.792v-8h-5.792v8Z" fill="#fff" mask="url(#a)"></path>
</svg>
