
<svg xmlns="http://www.w3.org/2000/svg" width="131" height="110" fill="none">
  <path d="M0 23a8 8 0 0 1 8-8h84.836a8 8 0 0 1 8 8v22.834H0V23Z" fill="#FFB71E"></path>
  <path d="M0 45.835h100.836v51.502a6 6 0 0 1-6 6H6a6 6 0 0 1-6-6V45.835Z" fill="#152E64"></path>
  <rect x="20" y="2.5" width="15" height="25.001" rx="7.5" fill="#152E64"></rect>
  <rect x="65.002" y="2.5" width="15" height="25.001" rx="7.5" fill="#152E64"></rect>
  <path d="m94.264 54.006-.015-.017-.015-.018c-4.725-5.396-12.315-7.3-19.04-4.8-6.128 1.996-10.758 7.053-12.172 13.324a22.09 22.09 0 0 0 3.435 18.517 45.82 45.82 0 0 0 7.812 8.8c4.363 3.874 8.779 7.684 13.17 11.473l2.956 2.551c.122.105.242.221.431.403l.094.089c.214.206.514.491.852.762.665.532 1.808 1.284 3.375 1.284 1.564 0 2.706-.749 3.371-1.279a13.1 13.1 0 0 0 .853-.759l.088-.084c.192-.184.314-.3.436-.405l12.518-10.746a70.793 70.793 0 0 0 10.142-10.326 23.591 23.591 0 0 0 5.355-13.36 19.862 19.862 0 0 0-7.745-17.68 17.591 17.591 0 0 0-15.717-3.02 18.236 18.236 0 0 0-9.406 6.23 53.582 53.582 0 0 0-.778-.939Z" fill="#900021" stroke="#fff" stroke-width="6"></path>
</svg>
