
<svg xmlns="http://www.w3.org/2000/svg" width="56" height="59" fill="none">
  <path d="m12.92 34.297 7.016 6.231a2.354 2.354 0 0 0 3.128 0l7.016-6.23a1.177 1.177 0 0 1 1.51-.045l6.695 5.28A12.389 12.389 0 0 1 43 49.261v8.56c0 .651-.527 1.179-1.178 1.179H1.178C.528 59 0 58.472 0 57.82v-8.56c0-3.794 1.738-7.379 4.715-9.727l6.694-5.28a1.177 1.177 0 0 1 1.511.044ZM38 16c0 8.837-7.387 16-16.5 16S5 24.837 5 16 12.387 0 21.5 0 38 7.163 38 16Z" fill="#152E63"></path>
  <path fill-rule="evenodd" clip-rule="evenodd" d="M30.867 23h21.266C54.26 23 56 24.751 56 26.892V56.6c0 1.325-1.06 2.4-2.367 2.4H29.367C28.06 59 27 57.925 27 56.6V26.892A3.86 3.86 0 0 1 30.867 23Z" fill="#FFB700"></path>
  <path fill-rule="evenodd" clip-rule="evenodd" d="M31.1 26h20.8c1.15 0 2.1.844 2.1 1.969v26.866c0 .643-.548 1.165-1.224 1.165H30.224C29.549 56 29 55.478 29 54.835V27.969c0-1.125.95-1.969 2.1-1.969Z" fill="#FFB700"></path>
  <path fill-rule="evenodd" clip-rule="evenodd" d="M46.752 32.316a1.065 1.065 0 0 1-.042 1.413l-5.863 6a.862.862 0 0 1-1.252.004l-3.302-3.349a1.065 1.065 0 0 1-.048-1.413.864.864 0 0 1 1.296-.052l2.676 2.713 5.24-5.361a.864.864 0 0 1 1.295.045Z" fill="#6A0910"></path>
  <path fill-rule="evenodd" clip-rule="evenodd" d="M33.472 44h16.056c.283 0 .472.267.472.667v.666c0 .4-.189.667-.472.667H33.472c-.283 0-.472-.267-.472-.667v-.666c0-.4.189-.667.472-.667ZM33.472 48h16.056c.283 0 .472.267.472.667v.666c0 .4-.189.667-.472.667H33.472c-.283 0-.472-.267-.472-.667v-.666c0-.4.189-.667.472-.667ZM33.472 52h16.056c.283 0 .472.267.472.667v.666c0 .4-.189.667-.472.667H33.472c-.283 0-.472-.267-.472-.667v-.666c0-.4.189-.667.472-.667Z" fill="#7A0019"></path>
  <path d="M41.5 26a2.5 2.5 0 1 0 0-5 2.5 2.5 0 0 0 0 5Z" fill="#7A0019"></path>
  <path fill-rule="evenodd" clip-rule="evenodd" d="M34 23h15v2.133C49 26.156 48.05 27 46.9 27H36.15c-1.15 0-2.1-.844-2.1-1.867V23H34Z" fill="#7A0019"></path>
</svg>
