
<svg xmlns="http://www.w3.org/2000/svg" width="40" height="40" fill="none">
  <path fill-rule="evenodd" clip-rule="evenodd" d="M31.03 8.941H9.852a.47.47 0 0 0-.47.47v28.236c0 .26.21.47.47.47h21.176c.26 0 .471-.21.471-.47V9.412a.47.47 0 0 0-.47-.471ZM9.852 7.059A2.353 2.353 0 0 0 7.5 9.412v28.235C7.5 38.947 8.553 40 9.853 40h21.176c1.3 0 2.353-1.054 2.353-2.353V9.412c0-1.3-1.053-2.353-2.353-2.353H9.853Z" fill="#6A0910"></path>
  <path fill-rule="evenodd" clip-rule="evenodd" d="M11.137 5.176c-.07.223-.108.46-.108.706V7.06h18.824V5.882A2.352 2.352 0 0 0 27.5 3.53H13.382a2.354 2.354 0 0 0-2.245 1.647Z" fill="#6A0910"></path>
  <path d="M23.97 3.53a3.53 3.53 0 1 1-7.058 0 3.53 3.53 0 0 1 7.058 0Z" fill="#6A0910"></path>
  <path d="M21.617 3.53a1.176 1.176 0 1 1-2.353 0 1.176 1.176 0 0 1 2.353 0Z" fill="#fff"></path>
  <path fill-rule="evenodd" clip-rule="evenodd" d="m17.95 14.205 2.947 11.875 3.047-8.93 2.623 7.574h2.11a.941.941 0 0 1 0 1.883h-3.45l-1.27-3.666-3.346 9.804-2.892-11.655-1.769 5.517h-3.744a.941.941 0 0 1 0-1.883h2.371l3.374-10.519Z" fill="#6A0910"></path>
</svg>
