
<svg xmlns:xlink="http://www.w3.org/1999/xlink" xmlns="http://www.w3.org/2000/svg" viewBox="0 0 120 120" width="120" height="120" fill="none" alt="Prosthetics">
  <path d="M25.584 68.88c0-5.497 4.458-9.954 9.954-9.954 5.497 0 9.954 4.457 9.954 9.954" fill="#FFCC33"></path>
  <path fill-rule="evenodd" clip-rule="evenodd" d="M35.538 60.926a7.955 7.955 0 0 0-7.954 7.954h-4c0-6.601 5.353-11.954 11.954-11.954 6.602 0 11.954 5.353 11.954 11.954h-4a7.955 7.955 0 0 0-7.954-7.954Z" fill="#6A0910"></path>
  <path fill-rule="evenodd" clip-rule="evenodd" d="M17.636 68.783a2 2 0 0 1 1.998-1.904h32.36a2 2 0 0 1 1.843 1.224c2.425 5.755 6.436 10.057 13.017 12.719.025.01.051.021.076.033l25.588 11.613 6.313 1.06c.035.005.07.012.105.02l4.144.925a2 2 0 0 1 1.564 1.953v1.614a6.971 6.971 0 0 1-6.971 6.971h-3.615a1.9 1.9 0 0 1-.271-.019l-2.482-.34-3.623.35a2.055 2.055 0 0 1-.192.009h-7.63c-2.574 0-5.145-.242-7.675-.725l-5.068-.966a2.027 2.027 0 0 1-.078-.016c-3.942-.916-6.642-1.34-9.314-1.34-2.675 0-5.427.425-9.473 1.342l-.068.014-5.067.966c-2.53.483-5.1.725-7.676.725h-5.563c-6.773 0-12.932-4.867-13.814-11.773-.126-.993-.04-2.267.045-3.159a34.053 34.053 0 0 1 .188-1.562l.008-.06.244-3.236c.513-6.784.814-10.772 1.087-16.438Zm2.634 20.206v.004l-.003.019-.012.08c-.01.073-.026.18-.043.314-.036.269-.082.641-.122 1.056-.085.885-.122 1.763-.058 2.27m.238-3.743c.009-.053.015-.105.018-.158l.25-3.306c.454-6.006.745-9.865.998-14.646h29.161c2.872 6.087 7.506 10.748 14.618 13.635l25.704 11.667c.177.09.37.154.573.188l6.524 1.095 2.528.564v.012a2.971 2.971 0 0 1-2.971 2.971h-3.478l-2.578-.354a1.999 1.999 0 0 0-.464-.009l-3.76.363H79.86c-2.323 0-4.643-.219-6.926-.654l-5.03-.959c-4.03-.934-7.066-1.434-10.179-1.434-3.111 0-6.196.5-10.323 1.433l-5.035.96c-2.282.435-4.6.654-6.926.654h-5.563c-4.95 0-9.242-3.553-9.846-8.279" fill="#6A0910"></path>
  <path fill-rule="evenodd" clip-rule="evenodd" d="M27.752 76.016a2 2 0 0 1 2.233 1.736 5.963 5.963 0 0 0 5.94 5.223 2 2 0 1 1 .017 4 9.963 9.963 0 0 1-9.927-8.726 2 2 0 0 1 1.737-2.233ZM38 60.065V43h4v17.065h-4Z" fill="#6A0910"></path>
  <path d="M30 43v17.065c5.6-1.148 9-.478 10 0V43H30Z" fill="#FFCC33"></path>
  <path fill-rule="evenodd" clip-rule="evenodd" d="M28 41h14v22.239l-2.863-1.37c-.161-.077-.963-.339-2.512-.416-1.494-.075-3.575.028-6.223.571L28 62.517V41Zm4 4v12.696c1.888-.254 3.5-.304 4.825-.238.413.02.806.053 1.175.095V45h-6Z" fill="#6A0910"></path>
  <path d="M21.731 17c-1.105 0-2.005.896-1.955 2a44.358 44.358 0 0 0 6.276 20.823l1.288 2.145a2 2 0 0 0 1.714.971h11.388a2 2 0 0 0 1.715-.97l1.288-2.146a44.38 44.38 0 0 0 6.276-20.824" fill="#FFCC33"></path>
  <path fill-rule="evenodd" clip-rule="evenodd" d="M21.778 19a42.358 42.358 0 0 0 5.989 19.794l1.287 2.145h11.388l1.288-2.145A42.379 42.379 0 0 0 47.718 19h-25.94Zm-4 .09c-.104-2.302 1.769-4.09 3.953-4.09h26.035c2.184 0 4.056 1.788 3.953 4.09a46.38 46.38 0 0 1-6.56 21.762l-1.287 2.146a4 4 0 0 1-3.43 1.941H29.054a4 4 0 0 1-3.43-1.941l-1.287-2.146a46.36 46.36 0 0 1-6.559-21.762Z" fill="#6A0910"></path>
</svg>
