
<svg xmlns:xlink="http://www.w3.org/1999/xlink" xmlns="http://www.w3.org/2000/svg" viewBox="0 0 120 120" width="120" height="120" fill="none" alt="Transplant Care">
  <path fill-rule="evenodd" clip-rule="evenodd" d="M57.904 84.907c0-11.823 10.274-21.28 22.575-21.28h7.946c12.301 0 22.575 9.457 22.575 21.28v1.1c0 2.774-2.375 4.827-5.02 4.827H76.985a1.912 1.912 0 0 1 0-3.824h28.995c.77 0 1.196-.57 1.196-1.003v-1.1c0-9.482-8.325-17.456-18.751-17.456H80.48c-10.427 0-18.752 7.974-18.752 17.456v1.1c0 .433.425 1.003 1.198 1.003a1.912 1.912 0 0 1 0 3.824c-2.649 0-5.022-2.053-5.022-4.827v-1.1ZM69.595 46.51c0-7.807 6.529-14.024 14.44-14.024 7.913 0 14.437 6.224 14.437 14.024 0 7.802-6.525 14.019-14.437 14.019-7.914 0-14.44-6.21-14.44-14.019Zm14.44-10.2c-5.923 0-10.616 4.626-10.616 10.2 0 5.574 4.689 10.195 10.616 10.195 5.923 0 10.613-4.626 10.613-10.195 0-5.57-4.69-10.2-10.613-10.2Z" fill="#6A0910"></path>
  <path d="M40.335 57.07c8.532 0 15.447-6.917 15.447-15.446S48.867 26.17 40.335 26.17s-15.452 6.918-15.452 15.454c0 8.536 6.917 15.445 15.452 15.445ZM45.352 63.266H35.251c-14.447 0-26.268 11.828-26.268 26.285v1.491A3.968 3.968 0 0 0 12.936 95h54.731c2.17 0 3.95-1.781 3.95-3.958v-1.49c0-14.459-11.821-26.286-26.267-26.286h.002Z" fill="#FFCC33"></path>
  <path fill-rule="evenodd" clip-rule="evenodd" d="M8.632 87.937c0-14.775 12.226-26.814 27.128-26.814h9.696c14.901 0 27.128 12.039 27.128 26.814v1.413c0 3.139-2.585 5.661-5.704 5.661H14.338c-3.12 0-5.706-2.522-5.706-5.661v-1.413Zm27.128-22.99c-12.835 0-23.304 10.372-23.304 22.99v1.413c0 .984.83 1.837 1.882 1.837H66.88c1.049 0 1.88-.852 1.88-1.837v-1.413c0-12.618-10.469-22.99-23.304-22.99H35.76ZM22.828 40.667c0-9.592 7.776-17.366 17.364-17.366 9.59 0 17.36 7.783 17.36 17.366 0 9.585-7.772 17.357-17.36 17.357-9.59 0-17.364-7.764-17.364-17.357Zm17.364-13.542c-7.476 0-13.54 6.062-13.54 13.542 0 7.478 6.06 13.533 13.54 13.533 7.476 0 13.535-6.06 13.535-13.533 0-7.474-6.06-13.542-13.535-13.542Z" fill="#6A0910"></path>
  <path fill-rule="evenodd" clip-rule="evenodd" d="M51.651 77.13c0-1.055.856-1.911 1.912-1.911h39.33a1.912 1.912 0 1 1 0 3.824h-39.33a1.912 1.912 0 0 1-1.912-1.912Z" fill="#6A0910"></path>
  <path fill-rule="evenodd" clip-rule="evenodd" d="M84.912 68.353a1.912 1.912 0 0 1 2.704.02L95.132 76c.733.744.733 1.94 0 2.684l-7.298 7.405a1.912 1.912 0 0 1-2.723-2.684l5.974-6.063-6.193-6.285a1.912 1.912 0 0 1 .02-2.704ZM48.783 77.119c0-1.056.856-1.912 1.912-1.912h20.267a1.912 1.912 0 0 1 0 3.824H50.695a1.912 1.912 0 0 1-1.912-1.912Z" fill="#6A0910"></path>
</svg>
