
<svg xmlns:xlink="http://www.w3.org/1999/xlink" xmlns="http://www.w3.org/2000/svg" viewBox="0 0 120 120" width="120" height="120" fill="none" alt="Birthplace">
  <path d="M38.266 49.639c-1.317-.739-3.008.17-3.12 1.676-.955 12.844-3.626 51.889 24.44 52.257 29.904.393 26.527-27.596 26.484-51.454-.002-1.513-1.608-2.5-2.95-1.803L61.41 61.576a2 2 0 0 1-1.899-.03L38.266 49.638Z" fill="#FFCC33"></path>
  <path fill-rule="evenodd" clip-rule="evenodd" d="M84.606 54.941c-.114-1.876-2.114-3.062-3.982-2.074l-31.687 16.75a2 2 0 1 1-1.87-3.536l31.687-16.75c4.23-2.236 9.54.358 9.845 5.367.459 7.54.484 19.99-3.054 30.633-1.776 5.338-4.49 10.354-8.622 14.046-4.173 3.729-9.668 5.993-16.743 5.993-6.463 0-11.565-1.499-15.517-4.308-3.947-2.806-6.563-6.788-8.29-11.428-3.411-9.158-3.514-21.347-3.324-33.484.083-5.306 5.82-8.586 10.439-5.996l8.537 4.787a2 2 0 0 1-1.957 3.49l-8.537-4.788c-1.986-1.114-4.447.304-4.483 2.57-.192 12.29-.029 23.696 3.073 32.025 1.528 4.104 3.73 7.339 6.86 9.564 3.126 2.222 7.364 3.568 13.2 3.568 6.143 0 10.675-1.936 14.077-4.976C77.7 93.318 80.11 89 81.748 84.07c3.292-9.897 3.31-21.722 2.858-29.128Z" fill="#6A0910"></path>
  <path fill-rule="evenodd" clip-rule="evenodd" d="M60.312 25.422c-9.925 0-17.98 8.067-17.98 18.026V50.5h-4v-7.052c0-12.16 9.837-22.026 21.98-22.026s21.981 9.866 21.981 22.026V49.5h-4v-6.052c0-9.959-8.055-18.026-17.98-18.026Z" fill="#6A0910"></path>
  <path fill-rule="evenodd" clip-rule="evenodd" d="M62.301 23.199v.003-.008a11.349 11.349 0 0 1-.032-1.268c.026-.807.143-1.73.438-2.492.29-.746.662-1.132 1.103-1.302.474-.182 1.501-.3 3.483.536a2 2 0 1 0 1.556-3.685c-2.484-1.048-4.66-1.284-6.478-.583-1.851.714-2.86 2.213-3.393 3.587-.527 1.36-.675 2.792-.707 3.81a15.286 15.286 0 0 0 .039 1.68l.01.115.004.036.002.012v.006c0 .001 0 .002 1.988-.223l-1.988.225a2 2 0 0 0 3.975-.45ZM46.704 41a2 2 0 0 1 2-2v4a2 2 0 0 1-2-2Zm10 0v2h-7.999v-4h7.998l.001 2Zm0 0v2a2 2 0 1 0 0-4v2ZM58 49v2l-1.49 1.334A2 2 0 0 1 58 49Zm6 2 1.49 1.335-.002.001-.001.002-.004.005-.01.01-.026.028-.075.08a7.853 7.853 0 0 1-1.114.935c-.695.48-1.848 1.104-3.258 1.104s-2.563-.624-3.258-1.104a7.85 7.85 0 0 1-1.19-1.015l-.025-.028-.01-.01-.004-.005-.002-.003L58 51v-2h6v2Zm0 0 1.49 1.334A2 2 0 0 0 64 49v2ZM63.704 41a2 2 0 0 1 2-2v4a2 2 0 0 1-2-2Zm9 0v2h-7v-4h7v2Zm0 0v2a2 2 0 1 0 0-4v2Z" fill="#6A0910"></path>
</svg>
