
<svg xmlns:xlink="http://www.w3.org/1999/xlink" xmlns="http://www.w3.org/2000/svg" viewBox="0 0 120 120" width="120" height="120" fill="none" alt="HeartVascular">
  <path d="M32 60.5H20.5c0 4 24.333 25.333 36.5 35.5l27.5-23L94 60.5H58.5l-8 20L40 45l-8 15.5Z" fill="#FFCC33"></path>
  <path fill-rule="evenodd" clip-rule="evenodd" d="M40.127 43.664 50.57 78.976l7.59-18.977h36.847L84.864 73.347 57 96.65l-.32-.268c-6.088-5.087-15.22-12.968-22.834-20.08-3.805-3.556-7.239-6.926-9.724-9.663-1.241-1.367-2.256-2.586-2.962-3.597a10.14 10.14 0 0 1-.835-1.382c-.192-.402-.325-.8-.325-1.162V60h11.695l8.431-16.335Zm-.254 2.67L32.306 61h-11.18c.029.07.062.147.102.23.165.345.416.76.752 1.24.672.961 1.654 2.145 2.883 3.499 2.458 2.706 5.868 6.054 9.667 9.603C41.992 82.543 50.924 90.261 57 95.347l27.136-22.695 8.856-11.653H58.838L50.43 82.023 39.873 46.335Z" fill="#FFCC33"></path>
  <path fill-rule="evenodd" clip-rule="evenodd" d="m57.271 43.781 3.268-4.754a67.84 67.84 0 0 1 4.165-5.448c4.43-5.04 11.567-6.823 17.887-4.442l.092.034.093.03c5.973 1.92 10.455 6.834 11.799 12.891l.018.082.021.08a22.98 22.98 0 0 1-3.588 19.367l-.033.047-.033.049a56.522 56.522 0 0 1-9.68 10.912l-.016.013-.015.014c-6.123 5.436-12.313 10.777-18.518 16.13-1.845 1.593-3.692 3.186-5.538 4.783L38.103 77.18l-.028-.022a91.82 91.82 0 0 1-13.202-13.443l-.023-.028-.024-.028a25.113 25.113 0 0 1-5.723-14.286l-.004-.056-.005-.057c-.667-6.826 2.257-13.521 7.755-17.708l.02-.016.021-.016a16.623 16.623 0 0 1 14.883-2.856l.025.007.026.008a17.525 17.525 0 0 1 9.635 6.752l.045.064.048.062c.53.69.933 1.297 1.39 1.987.3.452.624.94 1.023 1.51l3.306 4.727Zm4.405-12.814a71.809 71.809 0 0 0-4.433 5.794c-.284-.405-.568-.831-.858-1.266-.494-.742-1.006-1.51-1.563-2.246a24.47 24.47 0 0 0-.099-.13 21.525 21.525 0 0 0-11.832-8.296 20.623 20.623 0 0 0-18.466 3.547c-6.595 5.022-10.115 13.066-9.313 21.28a29.113 29.113 0 0 0 6.634 16.56A95.82 95.82 0 0 0 35.524 80.24l19.55 16.782a2.783 2.783 0 0 0 4.242 0c2.001-1.731 4.006-3.462 6.012-5.192 6.21-5.359 12.43-10.725 18.577-16.182A60.522 60.522 0 0 0 94.27 63.962a26.982 26.982 0 0 0 4.21-22.736C96.826 33.771 91.316 27.744 84 25.393c-7.882-2.968-16.793-.744-22.324 5.573Z" fill="#6A0910"></path>
  <mask id="a" style="mask-type:alpha" maskUnits="userSpaceOnUse" x="15" y="22" width="85" height="74" fill="none">
    <path d="M57.243 34.761c-.798-1.14-1.595-2.438-2.52-3.641a21.525 21.525 0 0 0-11.832-8.297 20.623 20.623 0 0 0-18.466 3.547c-6.595 5.022-10.115 13.066-9.313 21.28a29.113 29.113 0 0 0 6.634 16.56A95.82 95.82 0 0 0 35.524 78.24l19.55 16.782a2.783 2.783 0 0 0 4.242 0c8.196-7.093 16.456-14.154 24.589-21.374A60.522 60.522 0 0 0 94.27 61.962a26.982 26.982 0 0 0 4.21-22.736C96.826 31.771 91.316 25.744 84 23.393c-7.882-2.968-16.793-.744-22.324 5.573a71.853 71.853 0 0 0-4.433 5.795Z" fill="#D9D9D9"></path>
  </mask>
  <g mask="url(#a)" fill="none">
    <path fill-rule="evenodd" clip-rule="evenodd" d="M39.786 41a2 2 0 0 1 1.87 1.45l9.297 32.538 4.597-14.852a2 2 0 0 1 1.911-1.409h39a2 2 0 1 1 0 4H58.936l-6.149 19.864a2 2 0 0 1-3.834-.042L39.56 49.673l-4.012 11.703a2 2 0 0 1-1.892 1.351H19.98a2 2 0 0 1 0-4h12.246l5.615-16.376a2 2 0 0 1 1.944-1.35Z" fill="#6A0910"></path>
  </g>
  <path fill-rule="evenodd" clip-rule="evenodd" d="M103.14 37.3a2 2 0 0 1 2.816.263c3.111 3.75 7.495 13.673.067 23.357a2 2 0 1 1-3.174-2.435c5.862-7.641 2.467-15.429.029-18.368a1.998 1.998 0 0 1 .262-2.816Z" fill="#6A0910"></path>
</svg>
