
<svg xmlns="http://www.w3.org/2000/svg" id="Layer_1" version="1.1" viewBox="0 0 120 120">
  <defs>
    <style>
      .st0 {
        fill: #6a0910;
        fill-rule: evenodd;
      }

      .st1 {
        fill: #ffb71e;
      }
    </style>
  </defs>
  <path class="st1" d="M64,33l-4.5-2,1,14-3,24,4.5,26.5h5.5l3-3-4-24.5,2-12,1.5-13.5-1-11.5-5,2Z"></path>
  <path class="st0" d="M68.6,29.2c.8.7.9,1.9.2,2.7-2,2.3-4.2,3.2-6.4,2.8-2-.4-3.5-1.8-4.4-2.8-.7-.8-.7-2,.1-2.8s2-.7,2.8.1c.9.9,1.6,1.5,2.3,1.6.4,0,1.3,0,2.8-1.6.7-.8,1.9-.9,2.7-.2,0,0,0,0,0,0h0ZM34,51c.9-.6,2.1-.3,2.7.6,0,0,0,0,0,0,3.9,6.1,3.1,12.7,1.9,16.4,1,.8,1.9,1.6,2.6,2.4.5-.6,1-1.2,1.6-1.7,5-4.7,11.3-5.7,14.5-5.5,1.1,0,1.9,1,1.8,2.1,0,1.1-1,1.9-2.1,1.8h0c-2.2-.1-6.8.6-10.6,3.7.3,1.1.6,2.5.9,3.9.3,1.7.4,3.6.2,5.4,1.1,1,2,2.3,2.5,3.7.9,2.3.9,5.3-.7,8.6-.5,1-1.6,1.4-2.6,1s-1.4-1.6-1-2.6h0c1.2-2.5,1-4.4.5-5.7-.3-.8-.8-1.5-1.4-2.1-.6.4-1.5,1.3-1.7,3.1-.1,1.1-1.1,1.8-2.2,1.7-1.1-.1-1.8-1.1-1.7-2.2h0c.4-3.5,2.4-5.5,4.2-6.3.1-1.3,0-2.7-.2-4.2,0-.3-.1-.7-.2-1,0,.1-.1.2-.2.3-.9,1.8-2,3.6-4,4.8-2,1.3-4.6,1.8-8.5,1.8s-1.9-.9-1.9-1.9.9-1.9,1.9-1.9c3.5,0,5.3-.5,6.4-1.2.8-.5,1.4-1.2,2-2.3-1.1-1.3-2.4-2.5-3.8-3.4-2.6-1.7-5.8-2.8-9.3-2.2-1.1.2-2.1-.5-2.3-1.6s.5-2.1,1.6-2.3h0c3.8-.7,7.2.2,10,1.6.8-3,1.1-7.8-1.7-12.2-.6-.9-.3-2.1.6-2.7h0ZM94.9,24.2c1,.3,1.7,1.3,1.4,2.4-.6,2.3-2.2,3.7-3.7,4.5-1.3.6-2.8,1-4.2,1-1,0-2.5.3-4.2.8-.8.2-1.6.5-2.3.8.4.6.9,1.3,1.6,2,2.5,2.7,6.4,5.4,11,5.1,1.1,0,2,.7,2.1,1.8,0,1.1-.7,2-1.8,2.1-4.7.3-8.6-1.7-11.5-4-.2.9-.3,1.8-.4,2.6-.1,1.7,0,3.1.4,4,4.5.9,11.9,4.7,12.7,14.8,0,1.1-.7,2-1.8,2.1-1.1,0-2-.7-2.1-1.8-.5-5.6-3.5-8.7-6.4-10.2.3.9.6,1.9.9,2.9.6,2.9.7,6.3-1.1,9.3-.6.9-1.8,1.1-2.7.6-.9-.6-1.1-1.7-.6-2.6,1-1.7,1.1-3.9.6-6.4-.5-2.4-1.6-4.6-2.4-5.9-1.5-2-1.7-4.8-1.5-7.1.1-2,.6-4,1-5.5-.6-.7-1.1-1.4-1.6-2.2-1.5.7-3,1.5-4.4,2.3-1.4.9-2.4,1.5-2.8,1.9-.8.7-2,.7-2.8,0-.7-.8-.7-2,0-2.8h0c.8-.7,2.1-1.6,3.6-2.5,1.7-1,3.5-1.9,5.3-2.7,1.9-.9,4-1.7,5.9-2.3,1.9-.6,3.8-1,5.4-1s1.6-.2,2.5-.6c.9-.4,1.5-1,1.7-1.9.3-1,1.3-1.7,2.4-1.4,0,0,0,0,0,0Z"></path>
  <path class="st0" d="M62.8,26.9c-1.1,0-1.9.9-1.9,1.9,0,.1,0,.2,0,.3l.7,4.6c1,6.1.8,12.4-.3,18.5l-1,5.4c-1.1,5.7-1.2,11.5-.3,17.2l2.7,17.4c0,.5.5.8,1,.8h3.2c.5,0,1-.4,1-1,0,0,0,0,0-.1l-2.4-17.6c-.7-5.4-.7-10.9.3-16.3l1.2-7c.9-5.3.9-10.7.1-16l-1-6.5c-.1-.9-1-1.6-1.9-1.6h-1.2,0ZM57,29.8c-.6-3.5,2.2-6.7,5.8-6.7h1.2c2.9,0,5.3,2.1,5.8,4.9l1,6.5c.9,5.7.9,11.6-.1,17.3l-1.2,7c-.9,5-.9,10.1-.2,15.1l2.4,17.6c.4,2.7-1.5,5.1-4.2,5.5-.2,0-.4,0-.7,0h-3.2c-2.4,0-4.4-1.7-4.8-4.1l-2.7-17.4c-1-6.2-.8-12.4.3-18.6l1-5.4c1.1-5.7,1.2-11.5.3-17.2,0,0-.7-4.6-.7-4.6Z"></path>
</svg>
