<svg width="10" height="13" viewBox="0 0 10 13" fill="none" xmlns="http://www.w3.org/2000/svg">
  <path fill-rule="evenodd" clip-rule="evenodd" d="M0 8C0 5.33333 1.6 2.93333 4.8 0C8 2.93333 9.6 5.33333 9.6 8C9.6 10.651 7.45097 12.8 4.8 12.8C2.14903 12.8 0 10.651 0 8ZM8.48256 7.25661C7.11837 6.74262 5.64043 7.42622 4.25553 8.06676C3.12821 8.58818 2.06256 9.08107 1.17008 8.8763C1.10247 8.59524 1.06667 8.3018 1.06667 8C1.06667 5.98617 2.16198 4.02341 4.8 1.46514C7.11293 3.70815 8.24 5.49338 8.48256 7.25661Z" fill="currentColor"/>
</svg>
